<svg width="24" height="24" viewBox="0 0 24 24" fill="none" xmlns="http://www.w3.org/2000/svg">
<path d="M22.5158 12.0625C22.5158 17.8525 17.8058 22.5625 12.0158 22.5625C7.73177 22.5625 3.91577 20.0005 2.29352 16.036C2.21813 15.8519 2.21896 15.6454 2.29583 15.4619C2.37269 15.2785 2.5193 15.133 2.70339 15.0576C2.88748 14.9823 3.09399 14.9831 3.27747 15.06C3.46095 15.1368 3.60638 15.2834 3.68177 15.4675C4.35479 17.1246 5.50777 18.5426 6.99264 19.5396C8.47752 20.5365 10.2265 21.0669 12.015 21.0625C16.9778 21.0625 21.015 17.0253 21.015 12.0625C21.015 7.09976 16.9778 3.06252 12.015 3.06252C10.2332 3.05832 8.49049 3.5847 7.00894 4.57458C5.52739 5.56446 4.37409 6.97302 3.69602 8.62077L4.06352 8.28402C4.21021 8.14965 4.40428 8.07906 4.60302 8.08778C4.80176 8.0965 4.9889 8.18382 5.12327 8.33051C5.25763 8.47721 5.32822 8.67128 5.3195 8.87002C5.31078 9.06876 5.22346 9.2559 5.07677 9.39026L3.08327 11.218C2.99809 11.2958 2.89616 11.353 2.78536 11.3851C2.67456 11.4172 2.55785 11.4235 2.44427 11.4033C2.33077 11.3831 2.22347 11.337 2.13071 11.2686C2.03796 11.2002 1.96226 11.1113 1.90952 11.0088L0.823516 8.89977C0.778407 8.81221 0.750986 8.71662 0.742818 8.61846C0.73465 8.52031 0.745895 8.4215 0.775912 8.32769C0.805928 8.23388 0.854128 8.1469 0.917759 8.07172C0.981391 7.99654 1.05921 7.93462 1.14677 7.88952C1.23433 7.84441 1.32991 7.81698 1.42807 7.80882C1.52622 7.80065 1.62503 7.81189 1.71884 7.84191C1.81265 7.87193 1.89963 7.92013 1.97481 7.98376C2.04999 8.04739 2.11191 8.12521 2.15702 8.21277L2.21027 8.31627C2.96512 6.32773 4.30777 4.61628 6.05946 3.40977C7.81115 2.20326 9.88878 1.55891 12.0158 1.56252C17.8058 1.56252 22.5158 6.27251 22.5158 12.0625ZM5.25002 12.0018C5.25002 8.27352 8.27177 5.25177 12 5.25177C15.7283 5.25177 18.75 8.27352 18.75 12.0018C18.75 15.73 15.7283 18.7518 12 18.7518C8.27177 18.7518 5.25002 15.73 5.25002 12.0018ZM11.25 12.0018C11.25 12.1182 11.2771 12.233 11.3292 12.3372C11.3813 12.4413 11.4569 12.5319 11.55 12.6018L14.55 14.8518C14.6285 14.9142 14.7187 14.9603 14.8153 14.9872C14.9118 15.0142 15.0128 15.0215 15.1123 15.0088C15.2118 14.996 15.3077 14.9635 15.3943 14.913C15.481 14.8626 15.5567 14.7953 15.6168 14.7151C15.677 14.6348 15.7205 14.5434 15.7448 14.4461C15.769 14.3488 15.7735 14.2476 15.7579 14.1485C15.7423 14.0495 15.7071 13.9545 15.6542 13.8693C15.6013 13.7841 15.5319 13.7104 15.45 13.6525L12.75 11.6275V8.25252C12.75 8.0536 12.671 7.86284 12.5303 7.72219C12.3897 7.58153 12.1989 7.50252 12 7.50252C11.8011 7.50252 11.6103 7.58153 11.4697 7.72219C11.329 7.86284 11.25 8.0536 11.25 8.25252V12.0018Z" fill="#11CEC7"/>
</svg>
