<svg width="24" height="24" viewBox="0 0 24 24" fill="none" xmlns="http://www.w3.org/2000/svg">
<path d="M3.66667 14.0977H11.375V21.9995H5.125C4.325 21.9995 3.66667 21.3424 3.66667 20.5439V14.0977ZM20.3333 14.0977V20.5439C20.3333 21.3424 19.675 21.9995 18.875 21.9995H12.625V14.0977H20.3333ZM2 9.31498V11.3944C2 12.1929 2.65833 12.85 3.45833 12.85H11.375V7.85938H3.45833C2.65833 7.85938 2 8.51648 2 9.31498ZM20.5417 7.85938H12.625V12.85H20.5417C21.3417 12.85 22 12.1929 22 11.3944V9.31498C22 8.51648 21.3417 7.85938 20.5417 7.85938Z" fill="#11CEC7"/>
<path d="M11.9998 8.72822C11.9101 8.72796 11.8214 8.70846 11.7399 8.67104C11.6584 8.63362 11.5858 8.57916 11.5272 8.51133C11.4686 8.44351 11.4252 8.36391 11.4001 8.27791C11.3749 8.19192 11.3686 8.10154 11.3815 8.01289C11.6898 5.93346 13.3173 2 17.274 2C19.5323 2.00083 20.3332 3.21855 20.3332 4.26159C20.3332 6.11562 17.7473 8.72822 11.9998 8.72822ZM17.274 3.24849C14.289 3.24849 13.1557 6.08068 12.7798 7.46226C15.1348 7.35246 16.6198 6.75775 17.4748 6.2512C18.6607 5.54835 19.0832 4.76232 19.0832 4.26076C19.0832 3.51383 18.149 3.24849 17.274 3.24849Z" fill="#11CEC7"/>
<path d="M12.0008 8.72738C6.25331 8.72738 3.66748 6.11478 3.66748 4.26076C3.66748 3.21772 4.46915 2 6.72748 2C10.6833 2 12.3108 5.93346 12.6191 8.01289C12.6319 8.10148 12.6255 8.19177 12.6003 8.27766C12.5751 8.36355 12.5317 8.44304 12.4731 8.51077C12.4145 8.5785 12.342 8.63289 12.2605 8.67025C12.179 8.70762 12.0905 8.72711 12.0008 8.72738ZM6.72748 3.24766C5.85248 3.24766 4.91748 3.51383 4.91748 4.26076C4.91748 5.32294 6.77831 7.25847 11.22 7.46226C10.845 6.07985 9.71165 3.24766 6.72748 3.24766Z" fill="#11CEC7"/>
</svg>
