<svg width="33" height="32" viewBox="0 0 33 32" fill="none" xmlns="http://www.w3.org/2000/svg">
<path opacity="0.4" d="M22.087 2.66663H10.927C6.06033 2.66663 3.16699 5.55996 3.16699 10.4133V21.5733C3.16699 26.4266 6.06033 29.32 10.9137 29.32H22.0737C26.927 29.32 29.8203 26.4266 29.8203 21.5733V10.4133C29.8337 5.55996 26.9403 2.66663 22.087 2.66663Z" fill="#11B8B2"/>
<path d="M14.0734 8.1333C13.5268 8.1333 13.0734 8.58663 13.0734 9.1333V20.4666L10.7268 18.12C10.3401 17.7333 9.7001 17.7333 9.31344 18.12C8.92677 18.5066 8.92677 19.1466 9.31344 19.5333L13.3668 23.5866C13.4601 23.68 13.5668 23.7466 13.6868 23.8C13.8068 23.8533 13.9401 23.88 14.0734 23.88C14.2068 23.88 14.3268 23.8533 14.4601 23.8C14.7001 23.6933 14.9001 23.5066 15.0068 23.2533C15.0601 23.1333 15.0868 23 15.0868 22.8666V9.1333C15.0734 8.5733 14.6334 8.1333 14.0734 8.1333Z" fill="#11B8B2"/>
<path d="M23.6868 12.48L19.6334 8.42663C19.5401 8.3333 19.4334 8.26663 19.3134 8.2133C19.0734 8.10663 18.7934 8.10663 18.5534 8.2133C18.3134 8.31997 18.1134 8.50663 18.0068 8.75997C17.9534 8.87997 17.9268 9.0133 17.9268 9.14663V22.8933C17.9268 23.44 18.3801 23.8933 18.9268 23.8933C19.4734 23.8933 19.9268 23.44 19.9268 22.8933V11.56L22.2734 13.9066C22.4734 14.1066 22.7268 14.2 22.9801 14.2C23.2334 14.2 23.4868 14.1066 23.6868 13.9066C24.0734 13.4933 24.0734 12.8666 23.6868 12.48Z" fill="#11B8B2"/>
</svg>
