<svg width="20" height="20" viewBox="0 0 20 20" fill="none" xmlns="http://www.w3.org/2000/svg">
<g clip-path="url(#clip0_460_9354)">
<path d="M15.4854 10.4822H17.829V16.0937H15.4854V10.4822ZM11.0473 10.4822H13.391V16.0937H11.0473V10.4822ZM6.60907 10.4822H8.95282V16.0937H6.60907V10.4822ZM2.17106 10.4822H4.51465V16.0937H2.17106V10.4822ZM18.6104 8.72435V8.13841H1.38981V8.72435C1.38981 9.04799 1.65211 9.31029 1.97575 9.31029H18.0245C18.348 9.31029 18.6104 9.04799 18.6104 8.72435ZM19.4138 17.2656H0.586607C0.262935 17.2656 0.000669149 17.5279 0.000669149 17.8515V19.414C0.000669149 19.7377 0.262935 20 0.586607 20H19.4138C19.7374 20 19.9997 19.7377 19.9997 19.414V17.8515C19.9997 17.5279 19.7374 17.2656 19.4138 17.2656ZM0.585982 6.96654H19.4141C19.5417 6.96654 19.6658 6.92491 19.7675 6.84796C19.8693 6.77101 19.9431 6.66296 19.9779 6.54021C20.0126 6.41746 20.0064 6.28673 19.9601 6.16786C19.9137 6.04899 19.8299 5.94849 19.7213 5.88162L10.3072 0.0869696C10.2148 0.0301076 10.1085 0 10 0C9.89158 0 9.78525 0.0301076 9.69289 0.0869696L0.278833 5.88162C0.170203 5.9485 0.0863705 6.04901 0.040071 6.16787C-0.00622856 6.28674 -0.0124648 6.41748 0.0223098 6.54021C0.0570554 6.66294 0.130901 6.77098 0.232633 6.84793C0.334366 6.92487 0.458428 6.96652 0.585982 6.96654ZM9.6018 3.44634H10.3984C10.7221 3.44634 10.9844 3.70861 10.9844 4.03228C10.9844 4.35591 10.7221 4.61822 10.3984 4.61822H9.6018C9.27817 4.61822 9.01586 4.35591 9.01586 4.03228C9.01586 3.70861 9.27817 3.44634 9.6018 3.44634Z" fill="#11CEC7"/>
</g>
<defs>
<clipPath id="clip0_460_9354">
<rect width="20" height="20" fill="white"/>
</clipPath>
</defs>
</svg>
