<svg width="24" height="24" viewBox="0 0 24 24" fill="none" xmlns="http://www.w3.org/2000/svg">
<path d="M18.2481 5.692C18.9767 5.43829 19.5372 5.15029 19.887 4.864C20.127 4.66857 20.2024 4.54 20.2024 4.48857C20.2024 4.43714 20.127 4.30857 19.887 4.11143C19.5372 3.82686 18.9784 3.53886 18.2481 3.28514C16.6504 2.73143 14.439 2.40743 12.0681 2.40743C9.69724 2.40743 7.48581 2.73314 5.88809 3.28514C5.15952 3.53886 4.59895 3.82686 4.24924 4.11314C4.00924 4.30857 3.93381 4.43543 3.93381 4.48857C3.93381 4.54 4.00924 4.66857 4.24924 4.86571C4.59895 5.15029 5.15781 5.43829 5.88809 5.692C7.48581 6.24571 9.69724 6.56971 12.0681 6.56971C14.439 6.56971 16.6504 6.244 18.2481 5.692ZM3.41095 11.464V14.4829C4.30067 15.4206 6.69381 16.5623 9.61667 16.9034C13.9024 17.4023 17.9601 16.4663 20.715 14.5994L20.7252 11.5137C17.7904 13.24 13.659 13.9651 9.48124 13.4766C6.89438 13.1766 4.69152 12.3966 3.40924 11.464H3.41095ZM3.41095 9.57829C4.30238 10.5143 6.69381 11.656 9.61667 11.9954C13.911 12.496 17.9772 11.5566 20.7321 9.68114L20.7441 6.25943C18.9904 7.288 15.7624 7.97714 12.0681 7.97714C8.38924 7.97714 5.17152 7.29143 3.41609 6.27143C3.41379 7.37314 3.41208 8.47486 3.41095 9.57657V9.57829ZM3.41438 16.372L3.42124 18.9057L3.39552 18.7309C3.92009 20.4657 7.26981 21.8594 12.2584 21.8594C14.9755 21.8594 17.1047 21.448 18.7418 20.6389C19.2012 20.4109 19.551 20.2189 19.8938 19.9686C20.1218 19.8023 20.271 19.7011 20.5161 19.4851C20.7698 19.2606 21.1607 19.3154 21.387 19.5709C21.6115 19.8229 21.6407 20.2343 21.387 20.4606C21.1127 20.7006 20.9841 20.8086 20.7167 21.004C20.3172 21.2954 19.863 21.5989 19.3384 21.8594C17.5315 22.7526 15.6904 23.2857 12.2584 23.2857C6.54124 23.2857 2.76124 21.4771 2.03781 19.0857L2.01209 19V18.9109L2.00181 15.292C1.99771 11.732 2.00057 8.17199 2.01038 4.612C2.00603 4.571 2.00375 4.5298 2.00352 4.48857C2.00524 2.56171 6.51038 1 12.0681 1C17.6258 1 22.131 2.56171 22.131 4.48857C22.1315 4.56384 22.1252 4.63901 22.1121 4.71314C22.1286 4.76701 22.1367 4.8231 22.1361 4.87943L22.0967 17.0766C22.095 17.416 21.783 17.6903 21.399 17.6886C21.015 17.6886 20.7047 17.4126 20.7064 17.0714V16.4303C17.775 18.1463 13.6504 18.8697 9.48124 18.3846C6.89781 18.0829 4.69495 17.3046 3.41267 16.372H3.41438ZM19.083 9.55257C18.9232 9.55394 18.7694 9.49191 18.6554 9.38008C18.5413 9.26825 18.4762 9.11574 18.4744 8.956C18.4744 8.62686 18.7487 8.36114 19.0847 8.36114C19.4207 8.36114 19.695 8.62686 19.695 8.956C19.695 9.28686 19.4207 9.55257 19.0847 9.55257H19.083ZM19.083 14.4606C18.9232 14.4619 18.7694 14.3999 18.6554 14.2881C18.5413 14.1762 18.4762 14.0237 18.4744 13.864C18.4744 13.5349 18.7487 13.2674 19.0847 13.2674C19.4207 13.2674 19.695 13.5349 19.695 13.864C19.695 14.1931 19.4207 14.4606 19.0847 14.4606H19.083ZM19.083 19.432C19.0037 19.4327 18.9251 19.4177 18.8516 19.388C18.7782 19.3583 18.7113 19.3145 18.6548 19.2589C18.5982 19.2033 18.5532 19.1372 18.5223 19.0642C18.4913 18.9913 18.4751 18.913 18.4744 18.8337C18.4744 18.5046 18.7487 18.2371 19.0847 18.2371C19.4207 18.2371 19.695 18.5046 19.695 18.8337C19.695 19.1629 19.4207 19.4303 19.0847 19.4303L19.083 19.432Z" fill="#11CEC7"/>
</svg>
