<svg width="24" height="24" viewBox="0 0 24 24" fill="none" xmlns="http://www.w3.org/2000/svg">
<g clip-path="url(#clip0_377_15919)">
<path d="M18.9307 19.2038C18.1019 18.5426 15.52 17.2704 14.883 17.1237C14.2473 16.9759 13.4777 17.5907 13.2658 18.3541C13.0527 19.1179 12.6552 19.0457 12.6552 19.0457C12.6552 19.0457 11.1238 18.483 8.32256 15.6925C5.52089 12.9011 4.95459 11.3718 4.95459 11.3718C4.95459 11.3718 4.87982 10.9743 5.64328 10.7582C6.40509 10.5443 7.01737 9.77223 6.86789 9.13646C6.71925 8.50074 5.4367 5.92257 4.77304 5.09748C4.10779 4.27243 2.82276 4.69792 2.54025 4.90365C2.25609 5.10864 -0.730364 7.00721 0.167808 10.5032C1.06715 13.9997 2.99653 16.7969 5.11682 18.9102C7.23754 21.0227 10.0416 22.9413 13.541 23.8276C17.0399 24.7142 18.9278 21.7208 19.1319 21.4366C19.3364 21.1533 19.7569 19.8662 18.9307 19.2038Z" fill="#11CEC7"/>
<path d="M11.5792 8.86777C12.0433 9.0953 12.7813 9.51746 13.6367 10.3725C14.4922 11.2279 14.9139 11.9659 15.1414 12.4295C15.3804 12.917 15.557 13.0152 15.6999 12.9819C15.9356 12.9272 16.014 12.864 16.0358 12.3725C16.0539 11.9536 15.8535 10.7043 14.5792 9.42999C13.3048 8.15564 12.0551 7.95568 11.6371 7.97372C11.1451 7.99468 11.0827 8.07352 11.0281 8.31005C10.9948 8.45218 11.0917 8.62918 11.5792 8.86777Z" fill="#11CEC7"/>
<path d="M12.3258 3.94922C11.7254 3.9488 11.5738 4.32047 11.5557 4.46461C11.5188 4.7558 11.7336 4.99191 12.1795 5.11964C12.6896 5.26542 14.7101 5.91347 16.4029 7.60627C18.0961 9.29906 18.7446 11.32 18.89 11.83C19.0173 12.2756 19.253 12.49 19.5445 12.4535C19.6895 12.4362 20.0607 12.2843 20.0599 11.6839C20.0603 11.2087 19.7699 8.72044 17.5293 6.47897C15.2892 4.23872 12.7997 3.94875 12.3258 3.94922Z" fill="#11CEC7"/>
<path d="M20.4986 3.50954C17.2892 0.300154 13.9032 0.0237787 13.3213 0.00854432C12.6108 -0.00950256 12.329 0.309201 12.3295 0.63606C12.329 0.914497 12.6145 1.20072 13.0391 1.30998C13.6765 1.47339 16.2029 1.87136 19.1696 4.83808C22.1371 7.80479 22.5343 10.3317 22.6985 10.9695C22.8074 11.3933 23.094 11.6791 23.372 11.6791C23.6993 11.6791 24.018 11.3978 23.9991 10.6877C23.9844 10.1054 23.708 6.7194 20.4986 3.50954Z" fill="#11CEC7"/>
</g>
<defs>
<clipPath id="clip0_377_15919">
<rect width="24" height="24" fill="white"/>
</clipPath>
</defs>
</svg>
