<svg width="18" height="18" viewBox="0 0 18 18" fill="none" xmlns="http://www.w3.org/2000/svg">
<path opacity="0.4" d="M12.1803 2.73755H5.82027C3.96777 2.73755 2.46777 4.24505 2.46777 6.09005V13.1475C2.46777 14.9925 3.97527 16.5 5.82027 16.5H12.1728C14.0253 16.5 15.5253 14.9925 15.5253 13.1475V6.09005C15.5328 4.23755 14.0253 2.73755 12.1803 2.73755Z" fill="white"/>
<path d="M10.7628 1.5H7.23781C6.45781 1.5 5.82031 2.13 5.82031 2.91V3.615C5.82031 4.395 6.45031 5.025 7.23031 5.025H10.7628C11.5428 5.025 12.1728 4.395 12.1728 3.615V2.91C12.1803 2.13 11.5428 1.5 10.7628 1.5Z" fill="white"/>
<path d="M11.25 9.71252H6C5.6925 9.71252 5.4375 9.45752 5.4375 9.15002C5.4375 8.84252 5.6925 8.58752 6 8.58752H11.25C11.5575 8.58752 11.8125 8.84252 11.8125 9.15002C11.8125 9.45752 11.5575 9.71252 11.25 9.71252Z" fill="white"/>
<path d="M9.285 12.7125H6C5.6925 12.7125 5.4375 12.4575 5.4375 12.15C5.4375 11.8425 5.6925 11.5875 6 11.5875H9.285C9.5925 11.5875 9.8475 11.8425 9.8475 12.15C9.8475 12.4575 9.5925 12.7125 9.285 12.7125Z" fill="white"/>
</svg>
