<svg width="17" height="18" viewBox="0 0 17 18" fill="none" xmlns="http://www.w3.org/2000/svg">
<path opacity="0.4" fill-rule="evenodd" clip-rule="evenodd" d="M15.5833 10.5938C15.8767 10.5938 16.1146 10.8316 16.1146 11.125C16.1146 14.1597 13.6597 16.6146 10.625 16.6146C10.4336 16.6146 10.257 16.5116 10.1627 16.3451C10.0684 16.1785 10.071 15.9741 10.1695 15.81L10.9132 14.5704C11.0641 14.3188 11.3905 14.2373 11.6421 14.3882C11.8937 14.5392 11.9752 14.8655 11.8243 15.1171L11.6321 15.4374C13.5936 14.9823 15.0521 13.2263 15.0521 11.125C15.0521 10.8316 15.2899 10.5938 15.5833 10.5938Z" fill="#11B8B2"/>
<path opacity="0.4" fill-rule="evenodd" clip-rule="evenodd" d="M5.36822 2.56258C3.40677 3.01763 1.94824 4.77363 1.94824 6.87496C1.94824 7.16836 1.71039 7.40621 1.41699 7.40621C1.12359 7.40621 0.885742 7.16836 0.885742 6.87496C0.885742 3.84031 3.34067 1.38538 6.37533 1.38538C6.56672 1.38538 6.74332 1.48833 6.83762 1.65488C6.93192 1.82143 6.92934 2.02583 6.83087 2.18995L6.08713 3.42953C5.93618 3.68112 5.60985 3.76271 5.35826 3.61175C5.10667 3.4608 5.02509 3.13448 5.17604 2.88289L5.36822 2.56258Z" fill="#11B8B2"/>
<path opacity="0.4" d="M8.50032 11.621V12.053H1.41699V11.621C1.41699 10.3743 1.72866 10.0626 2.98949 10.0626H6.92782C8.18866 10.0626 8.50032 10.3743 8.50032 11.621Z" fill="#11B8B2"/>
<path d="M1.41699 12.053V13.1155V14.5251C1.41699 15.7717 1.72866 16.0834 2.98949 16.0834H6.92782C8.18866 16.0834 8.50032 15.7717 8.50032 14.5251V13.1155V12.053H1.41699Z" fill="#11B8B2"/>
<path opacity="0.4" d="M15.5843 3.47508V3.90716H8.50098V3.47508C8.50098 2.22841 8.81264 1.91675 10.0735 1.91675H14.0118C15.2726 1.91675 15.5843 2.22841 15.5843 3.47508Z" fill="#11B8B2"/>
<path d="M8.50098 3.9071V4.9696V6.37919C8.50098 7.62585 8.81264 7.93752 10.0735 7.93752H14.0118C15.2726 7.93752 15.5843 7.62585 15.5843 6.37919V4.9696V3.9071H8.50098Z" fill="#11B8B2"/>
</svg>
