<svg width="33" height="32" viewBox="0 0 33 32" fill="none" xmlns="http://www.w3.org/2000/svg">
<path d="M29.8331 7.61333V20.3867C29.8331 24.0667 26.8464 27.0533 23.1664 27.0533H9.8331C9.21977 27.0533 8.6331 26.9733 8.05977 26.8133C7.2331 26.5867 6.96643 25.5333 7.57977 24.92L21.7531 10.7467C22.0464 10.4533 22.4864 10.3867 22.8998 10.4667C23.3264 10.5467 23.7931 10.4267 24.1264 10.1067L27.5531 6.66666C28.8064 5.41333 29.8331 5.82666 29.8331 7.61333Z" fill="#11B8B2"/>
<path opacity="0.4" d="M20.0198 9.81336L6.05984 23.7734C5.41984 24.4134 4.35317 24.2534 3.9265 23.4534C3.43317 22.5467 3.1665 21.4934 3.1665 20.3867V7.61336C3.1665 5.82669 4.19317 5.41336 5.4465 6.66669L8.8865 10.12C9.4065 10.6267 10.2598 10.6267 10.7798 10.12L15.5532 5.33336C16.0732 4.81336 16.9265 4.81336 17.4465 5.33336L20.0332 7.92003C20.5398 8.44003 20.5398 9.29336 20.0198 9.81336Z" fill="#11B8B2"/>
</svg>
