<svg width="24" height="24" viewBox="0 0 24 24" fill="none" xmlns="http://www.w3.org/2000/svg">
<path fill-rule="evenodd" clip-rule="evenodd" d="M12.2734 3.23498C10.5678 3.17818 8.84455 3.64351 7.35682 4.63658C5.68589 5.75311 4.51815 7.40191 3.98029 9.24511C3.83175 9.22698 3.65389 9.23498 3.44269 9.29471C2.65415 9.51845 2.06109 10.1646 1.79442 10.7336C1.44855 11.4752 1.30269 12.456 1.45655 13.4686C1.60935 14.4779 2.03575 15.3099 2.56909 15.8264C3.10402 16.3432 3.70802 16.5112 4.30802 16.3851C5.20135 16.1944 5.64429 16.0518 5.51922 15.2195L4.91362 11.1851C5.03575 9.00165 6.16615 6.94618 8.05682 5.68218C10.5875 3.99178 13.9054 4.10005 16.3192 5.95311C17.9984 7.24058 18.9734 9.16965 19.0859 11.1947L18.6624 14.0168C17.7179 16.6016 15.3763 18.392 12.6667 18.6462H10.8624C10.3968 18.6462 10.0219 19.0211 10.0219 19.4862V19.9294C10.0219 20.3947 10.3968 20.7696 10.8624 20.7696H13.1374C13.6027 20.7696 13.976 20.3947 13.976 19.9294V19.6976C16.0192 19.199 17.8027 17.9432 18.964 16.192L19.6928 16.3854C20.2859 16.5392 20.8971 16.3432 21.4318 15.8267C21.9651 15.3099 22.3912 14.4782 22.5443 13.4688C22.6987 12.4563 22.5486 11.4771 22.2067 10.7339C21.8635 9.99071 21.3523 9.51871 20.7622 9.34938C20.515 9.27818 20.2467 9.25205 20.0166 9.24511C19.5302 7.57845 18.5288 6.06271 17.0856 4.95605C15.6667 3.86725 13.979 3.29098 12.2734 3.23498Z" fill="white"/>
<path fill-rule="evenodd" clip-rule="evenodd" d="M14.9364 10.4931C15.5378 10.4931 16.0252 10.9806 16.0266 11.5835C16.0252 12.1849 15.5378 12.6737 14.9364 12.6737C14.3335 12.6737 13.8447 12.1849 13.8447 11.5835C13.8447 10.9809 14.3338 10.4931 14.9364 10.4931ZM12.0004 10.4931C12.6031 10.4931 13.0906 10.9806 13.0906 11.5835C13.0906 12.1849 12.6031 12.6737 12.0004 12.6737C11.3972 12.6737 10.9098 12.1849 10.9098 11.5835C10.9098 10.9809 11.3972 10.4931 12.0004 10.4931ZM9.0655 10.4931C9.66683 10.4931 10.1556 10.9806 10.1556 11.5835C10.1556 12.1849 9.66683 12.6737 9.0655 12.6737C8.46283 12.6737 7.9751 12.1849 7.9751 11.5835C7.9751 10.9809 8.46283 10.4931 9.0655 10.4931ZM12.0004 5.80994C8.8031 5.80994 6.22656 8.30167 6.22656 11.5835C6.22656 13.1598 6.82256 14.5529 7.7935 15.575L7.44896 17.1195C7.33536 17.6278 7.6879 17.9697 8.1447 17.7153L9.65296 16.8739C10.3698 17.1851 11.1626 17.3571 12.0004 17.3571C15.1988 17.3571 17.7738 14.867 17.7738 11.5835C17.7738 8.30167 15.1988 5.80994 12.0004 5.80994Z" fill="white"/>
</svg>
