<svg width="33" height="32" viewBox="0 0 33 32" fill="none" xmlns="http://www.w3.org/2000/svg">
<path opacity="0.4" d="M21.8337 2.66663H8.50033C4.23366 2.66663 3.16699 3.73329 3.16699 7.99996V15.8667C3.20699 19.9067 4.32699 20.9333 8.50033 20.9333H11.5003V25.6666H7.10034C6.55368 25.6666 6.10034 26.12 6.10034 26.6666C6.10034 27.2133 6.55368 27.6666 7.10034 27.6666H16.8337C16.6337 27.1466 16.5403 26.4933 16.527 25.6666H13.5003V20.9333H16.527V15.8667V14.12C16.527 11.2667 17.4737 10.3199 20.327 10.3199H26.0337C26.447 10.3199 26.8337 10.3466 27.167 10.3866V7.99996C27.167 3.73329 26.1003 2.66663 21.8337 2.66663Z" fill="#11B8B2"/>
<path d="M27.1664 10.3866C26.833 10.3466 26.4464 10.3199 26.033 10.3199H20.3264C17.473 10.3199 16.5264 11.2667 16.5264 14.12V25.6666C16.5397 26.4933 16.633 27.1466 16.833 27.6666C17.2997 28.88 18.353 29.3333 20.3264 29.3333H26.033C28.8864 29.3333 29.833 28.3867 29.833 25.5333V14.12C29.833 11.68 29.1397 10.6399 27.1664 10.3866ZM23.1797 13.4533C24.3397 13.4533 25.273 14.3866 25.273 15.5466C25.273 16.7066 24.3397 17.6399 23.1797 17.6399C22.0197 17.6399 21.0864 16.7066 21.0864 15.5466C21.0864 14.3866 22.0197 13.4533 23.1797 13.4533ZM23.1797 25.5333C21.6064 25.5333 20.3264 24.2533 20.3264 22.68C20.3264 22.0266 20.5531 21.4133 20.9264 20.9333C21.4464 20.2666 22.2597 19.8266 23.1797 19.8266C23.8997 19.8266 24.5531 20.0933 25.0464 20.52C25.6464 21.0533 26.033 21.8266 26.033 22.68C26.033 24.2533 24.7531 25.5333 23.1797 25.5333Z" fill="#11B8B2"/>
<path opacity="0.4" d="M26.0338 22.68C26.0338 24.2533 24.7538 25.5334 23.1805 25.5334C21.6072 25.5334 20.3271 24.2533 20.3271 22.68C20.3271 22.0267 20.5538 21.4133 20.9272 20.9333C21.4472 20.2667 22.2605 19.8267 23.1805 19.8267C23.9005 19.8267 24.5538 20.0934 25.0472 20.52C25.6472 21.0534 26.0338 21.8267 26.0338 22.68Z" fill="#11B8B2"/>
<path opacity="0.4" d="M23.1803 17.6401C24.3364 17.6401 25.2736 16.7029 25.2736 15.5468C25.2736 14.3906 24.3364 13.4535 23.1803 13.4535C22.0241 13.4535 21.0869 14.3906 21.0869 15.5468C21.0869 16.7029 22.0241 17.6401 23.1803 17.6401Z" fill="#11B8B2"/>
</svg>
