<svg width="16" height="16" viewBox="0 0 16 16" fill="none" xmlns="http://www.w3.org/2000/svg">
<path d="M4.66675 1.33203H11.3334C11.8638 1.33203 12.3726 1.54274 12.7476 1.91782C13.1227 2.29289 13.3334 2.8016 13.3334 3.33203V12.6654C13.3334 13.1958 13.1227 13.7045 12.7476 14.0796C12.3726 14.4546 11.8638 14.6654 11.3334 14.6654H4.66675C4.13631 14.6654 3.62761 14.4546 3.25253 14.0796C2.87746 13.7045 2.66675 13.1958 2.66675 12.6654V3.33203C2.66675 2.8016 2.87746 2.29289 3.25253 1.91782C3.62761 1.54274 4.13631 1.33203 4.66675 1.33203ZM5.33341 5.9987C5.1566 5.9987 4.98703 6.06894 4.86201 6.19396C4.73699 6.31898 4.66675 6.48855 4.66675 6.66536C4.66675 6.84218 4.73699 7.01174 4.86201 7.13677C4.98703 7.26179 5.1566 7.33203 5.33341 7.33203H10.6667C10.8436 7.33203 11.0131 7.26179 11.1382 7.13677C11.2632 7.01174 11.3334 6.84218 11.3334 6.66536C11.3334 6.48855 11.2632 6.31898 11.1382 6.19396C11.0131 6.06894 10.8436 5.9987 10.6667 5.9987H5.33341ZM5.33341 11.332C5.1566 11.332 4.98703 11.4023 4.86201 11.5273C4.73699 11.6523 4.66675 11.8219 4.66675 11.9987C4.66675 12.1755 4.73699 12.3451 4.86201 12.4701C4.98703 12.5951 5.1566 12.6654 5.33341 12.6654H8.66675C8.84356 12.6654 9.01313 12.5951 9.13815 12.4701C9.26318 12.3451 9.33341 12.1755 9.33341 11.9987C9.33341 11.8219 9.26318 11.6523 9.13815 11.5273C9.01313 11.4023 8.84356 11.332 8.66675 11.332H5.33341ZM5.33341 3.33203C5.1566 3.33203 4.98703 3.40227 4.86201 3.52729C4.73699 3.65232 4.66675 3.82189 4.66675 3.9987C4.66675 4.17551 4.73699 4.34508 4.86201 4.4701C4.98703 4.59513 5.1566 4.66536 5.33341 4.66536H10.6667C10.8436 4.66536 11.0131 4.59513 11.1382 4.4701C11.2632 4.34508 11.3334 4.17551 11.3334 3.9987C11.3334 3.82189 11.2632 3.65232 11.1382 3.52729C11.0131 3.40227 10.8436 3.33203 10.6667 3.33203H5.33341ZM5.33341 8.66536C5.1566 8.66536 4.98703 8.7356 4.86201 8.86063C4.73699 8.98565 4.66675 9.15522 4.66675 9.33203C4.66675 9.50884 4.73699 9.67841 4.86201 9.80344C4.98703 9.92846 5.1566 9.9987 5.33341 9.9987H10.6667C10.8436 9.9987 11.0131 9.92846 11.1382 9.80344C11.2632 9.67841 11.3334 9.50884 11.3334 9.33203C11.3334 9.15522 11.2632 8.98565 11.1382 8.86063C11.0131 8.7356 10.8436 8.66536 10.6667 8.66536H5.33341Z" fill="#01100F" fill-opacity="0.7"/>
</svg>
