<svg width="24" height="20" viewBox="0 0 24 20" fill="none" xmlns="http://www.w3.org/2000/svg">
<g style="mix-blend-mode:plus-darker">
<path d="M19.687 19.6978H10.4893C10.04 19.6978 9.62077 19.6491 9.23145 19.5518C8.84961 19.4619 8.48649 19.3159 8.14209 19.1138C7.80518 18.9116 7.48324 18.6496 7.17627 18.3276L1.04443 11.915C0.670085 11.5257 0.400553 11.1663 0.23584 10.8369C0.0786133 10.5 0 10.1668 0 9.8374C0 9.61279 0.0336914 9.39193 0.101074 9.1748C0.175944 8.95768 0.288249 8.73307 0.437988 8.50098C0.595215 8.26888 0.797363 8.02181 1.04443 7.75977L7.16504 1.32471C7.47201 0.99528 7.79395 0.736979 8.13086 0.549805C8.47526 0.355143 8.83838 0.216634 9.22021 0.134277C9.60954 0.0444336 10.0288 -0.000488281 10.478 -0.000488281H19.687C20.8175 -0.000488281 21.6711 0.284017 22.2476 0.853027C22.8241 1.41455 23.1123 2.25684 23.1123 3.37988V16.3735C23.1123 17.4966 22.8241 18.3314 22.2476 18.8779C21.6711 19.4245 20.8175 19.6978 19.687 19.6978ZM19.6196 17.7998C20.1287 17.7998 20.5181 17.665 20.7876 17.3955C21.0646 17.126 21.2031 16.7254 21.2031 16.1938V3.51465C21.2031 2.98307 21.0646 2.58252 20.7876 2.31299C20.5181 2.04346 20.1287 1.90869 19.6196 1.90869H10.4219C10.04 1.90869 9.71061 1.95736 9.43359 2.05469C9.15658 2.14453 8.8833 2.32796 8.61377 2.60498L2.52686 8.99512C2.23486 9.30957 2.08887 9.59033 2.08887 9.8374C2.08887 9.96468 2.11882 10.0957 2.17871 10.2305C2.24609 10.3577 2.36214 10.5112 2.52686 10.6909L8.625 17.0474C8.89453 17.3244 9.16406 17.519 9.43359 17.6313C9.71061 17.7437 10.0438 17.7998 10.4331 17.7998H19.6196ZM9.96143 14.3296C9.70687 14.3296 9.48975 14.2397 9.31006 14.0601C9.13786 13.8804 9.05176 13.667 9.05176 13.4199C9.05176 13.1654 9.14535 12.952 9.33252 12.7798L12.2412 9.85986L9.33252 6.93994C9.14535 6.76774 9.05176 6.55811 9.05176 6.31104C9.05176 6.05648 9.13786 5.8431 9.31006 5.6709C9.48975 5.4987 9.70687 5.4126 9.96143 5.4126C10.216 5.4126 10.4256 5.50244 10.5903 5.68213L13.5103 8.59082L16.4526 5.6709C16.6398 5.49121 16.8532 5.40137 17.0928 5.40137C17.3398 5.40137 17.5532 5.48747 17.7329 5.65967C17.9126 5.83187 18.0024 6.04899 18.0024 6.31104C18.0024 6.55062 17.9089 6.75651 17.7217 6.92871L14.8018 9.85986L17.7104 12.7686C17.8976 12.9557 17.9912 13.1729 17.9912 13.4199C17.9912 13.667 17.9014 13.8804 17.7217 14.0601C17.542 14.2397 17.3286 14.3296 17.0815 14.3296C16.827 14.3296 16.6099 14.236 16.4302 14.0488L13.5103 11.1514L10.6128 14.0488C10.4481 14.236 10.231 14.3296 9.96143 14.3296Z" fill="#595959"/>
</g>
</svg>
