<svg width="17" height="16" viewBox="0 0 17 16" fill="none" xmlns="http://www.w3.org/2000/svg">
<rect x="0.5" y="0.761902" width="16" height="14.4762" rx="7.2381" fill="white" fill-opacity="0.3"/>
<path d="M6.63019 7.80668L4.79161 5.96811C4.06781 6.75716 3.79352 7.54763 3.78876 7.56382L3.73828 7.7143L3.78828 7.86478C3.79876 7.89668 4.89114 11.0476 8.5259 11.0476C8.96828 11.0476 9.37114 10.9991 9.74114 10.9176L8.43352 9.61001C7.9627 9.58693 7.51731 9.38953 7.18399 9.05621C6.85067 8.72289 6.65327 8.2775 6.63019 7.80668ZM8.5259 4.38097C7.64257 4.38097 6.91876 4.57335 6.31542 4.8562L4.55114 3.09192L3.87781 3.76525L12.4492 12.3367L13.1226 11.6633L11.5521 10.0929C12.8083 9.16287 13.2564 7.88478 13.263 7.86478L13.313 7.7143L13.263 7.56382C13.2526 7.53192 12.1607 4.38097 8.5259 4.38097ZM9.43352 7.9743C9.52257 7.65192 9.44685 7.28906 9.19923 7.04097C8.95161 6.79287 8.58828 6.71763 8.2659 6.80668L7.54781 6.08859C7.84207 5.90762 8.18045 5.81109 8.5259 5.80954C9.57638 5.80954 10.4307 6.66382 10.4307 7.7143C10.4293 8.05969 10.3325 8.39799 10.1511 8.69192L9.43352 7.9743Z" fill="white"/>
</svg>
