<svg width="24" height="24" viewBox="0 0 24 24" fill="none" xmlns="http://www.w3.org/2000/svg">
<path fill-rule="evenodd" clip-rule="evenodd" d="M2.97416 8.71665V6.52861C2.97416 5.58557 3.34831 4.68082 4.01566 4.01456C4.68192 3.34721 5.58667 2.97306 6.52971 2.97306H8.71775C9.17067 2.97306 9.53826 2.60547 9.53826 2.15254C9.53826 1.69962 9.17067 1.33203 8.71775 1.33203H6.52971C5.15125 1.33203 3.82968 1.87904 2.85491 2.85381C1.88014 3.82858 1.33313 5.15015 1.33313 6.52861V8.71665C1.33313 9.16957 1.70072 9.53716 2.15364 9.53716C2.60657 9.53716 2.97416 9.16957 2.97416 8.71665Z" fill="#11CEC7"/>
<path fill-rule="evenodd" clip-rule="evenodd" d="M15.2819 2.97306H17.47C18.413 2.97306 19.3178 3.34721 19.984 4.01456C20.6514 4.68082 21.0255 5.58557 21.0255 6.52861V8.71665C21.0255 9.16957 21.3931 9.53716 21.846 9.53716C22.299 9.53716 22.6666 9.16957 22.6666 8.71665V6.52861C22.6666 5.15015 22.1195 3.82858 21.1448 2.85381C20.17 1.87904 18.8484 1.33203 17.47 1.33203C16.2644 1.33203 15.2819 1.33203 15.2819 1.33203C14.829 1.33203 14.4614 1.69962 14.4614 2.15254C14.4614 2.60547 14.829 2.97306 15.2819 2.97306Z" fill="#11CEC7"/>
<path fill-rule="evenodd" clip-rule="evenodd" d="M1.33313 15.2815V17.4695C1.33313 18.8479 1.88014 20.1695 2.85491 21.1443C3.82968 22.1191 5.15125 22.6661 6.52971 22.6661H8.71775C9.17067 22.6661 9.53826 22.2985 9.53826 21.8456C9.53826 21.3926 9.17067 21.025 8.71775 21.025H6.52971C5.58667 21.025 4.68192 20.6509 4.01566 19.9835C3.34831 19.3173 2.97416 18.4125 2.97416 17.4695C2.97416 16.2639 2.97416 15.2815 2.97416 15.2815C2.97416 14.8285 2.60657 14.4609 2.15364 14.4609C1.70072 14.4609 1.33313 14.8285 1.33313 15.2815Z" fill="#11CEC7"/>
<path fill-rule="evenodd" clip-rule="evenodd" d="M15.2819 22.6661H17.47C18.8484 22.6661 20.17 22.1191 21.1448 21.1443C22.1195 20.1695 22.6666 18.8479 22.6666 17.4695C22.6666 16.2639 22.6666 15.2815 22.6666 15.2815C22.6666 14.8285 22.299 14.4609 21.846 14.4609C21.3931 14.4609 21.0255 14.8285 21.0255 15.2815V17.4695C21.0255 18.4125 20.6514 19.3173 19.984 19.9835C19.3178 20.6509 18.413 21.025 17.47 21.025C16.2644 21.025 15.2819 21.025 15.2819 21.025C14.829 21.025 14.4614 21.3926 14.4614 21.8456C14.4614 22.2985 14.829 22.6661 15.2819 22.6661Z" fill="#11CEC7"/>
<path fill-rule="evenodd" clip-rule="evenodd" d="M15.0083 8.17208V9.26609C15.0083 9.71902 15.3759 10.0866 15.8288 10.0866C16.2817 10.0866 16.6493 9.71902 16.6493 9.26609V8.17208C16.6493 7.71915 16.2817 7.35156 15.8288 7.35156C15.3759 7.35156 15.0083 7.71915 15.0083 8.17208Z" fill="#11CEC7"/>
<path fill-rule="evenodd" clip-rule="evenodd" d="M7.3504 8.17208V9.26609C7.3504 9.71902 7.71799 10.0866 8.17092 10.0866C8.62384 10.0866 8.99143 9.71902 8.99143 9.26609V8.17208C8.99143 7.71915 8.62384 7.35156 8.17092 7.35156C7.71799 7.35156 7.3504 7.71915 7.3504 8.17208Z" fill="#11CEC7"/>
<path fill-rule="evenodd" clip-rule="evenodd" d="M11.7262 12.5871V9.8127C11.7262 9.35978 12.0938 8.99219 12.5467 8.99219C12.9996 8.99219 13.3672 9.35978 13.3672 9.8127V13.0948C13.3672 13.4055 13.1911 13.6899 12.9132 13.8288L11.8192 14.3758C11.4144 14.5782 10.921 14.4141 10.7186 14.0083C10.5162 13.6035 10.6803 13.1101 11.0862 12.9077L11.7262 12.5871Z" fill="#11CEC7"/>
<path fill-rule="evenodd" clip-rule="evenodd" d="M15.2492 15.2485C15.398 15.0997 15.6026 15.0078 15.829 15.0078C16.282 15.0078 16.6495 15.3754 16.6495 15.8283C16.6495 16.0548 16.5577 16.2594 16.4089 16.4082C16.2601 16.5569 16.4089 16.4092 16.4078 16.4103C13.9736 18.8445 10.0264 18.8445 7.59218 16.4103C7.59109 16.4092 7.59109 16.4082 7.59109 16.4082C7.4423 16.2594 7.3504 16.0548 7.3504 15.8283C7.3504 15.3754 7.71799 15.0078 8.17092 15.0078C8.39738 15.0078 8.60196 15.0997 8.75074 15.2485C8.89953 15.3973 8.75184 15.2485 8.75293 15.2496C10.546 17.0427 13.4539 17.0427 15.247 15.2496C15.2481 15.2485 15.2492 15.2485 15.2492 15.2485Z" fill="#11CEC7"/>
</svg>
