<svg width="86" height="86" viewBox="0 0 86 86" fill="none" xmlns="http://www.w3.org/2000/svg">
<rect width="86" height="86" rx="43" fill="#EB5757" fill-opacity="0.08"/>
<rect x="13" y="13" width="60" height="60" rx="30" fill="#EB5757"/>
<path fill-rule="evenodd" clip-rule="evenodd" d="M52.6094 35.2752C52.8523 35.0238 52.9867 34.687 52.9837 34.3374C52.9806 33.9878 52.8404 33.6534 52.5932 33.4061C52.346 33.1589 52.0116 33.0187 51.662 33.0157C51.3124 33.0126 50.9756 33.147 50.7241 33.3899L43.0001 41.1139L35.2761 33.3899C35.0246 33.147 34.6878 33.0126 34.3382 33.0157C33.9886 33.0187 33.6542 33.1589 33.407 33.4061C33.1598 33.6534 33.0196 33.9878 33.0165 34.3374C33.0135 34.687 33.1479 35.0238 33.3908 35.2752L41.1148 42.9992L33.3908 50.7232C33.2634 50.8462 33.1618 50.9934 33.092 51.156C33.0221 51.3187 32.9853 51.4937 32.9838 51.6707C32.9822 51.8477 33.016 52.0233 33.083 52.1872C33.15 52.351 33.249 52.4999 33.3742 52.6251C33.4994 52.7503 33.6483 52.8493 33.8121 52.9163C33.976 52.9834 34.1516 53.0171 34.3286 53.0156C34.5057 53.014 34.6806 52.9773 34.8433 52.9074C35.006 52.8375 35.1531 52.7359 35.2761 52.6086L43.0001 44.8846L50.7241 52.6086C50.9756 52.8515 51.3124 52.9858 51.662 52.9828C52.0116 52.9798 52.346 52.8395 52.5932 52.5923C52.8404 52.3451 52.9806 52.0107 52.9837 51.6611C52.9867 51.3115 52.8523 50.9747 52.6094 50.7232L44.8854 42.9992L52.6094 35.2752Z" fill="white"/>
</svg>
