<svg width="33" height="32" viewBox="0 0 33 32" fill="none" xmlns="http://www.w3.org/2000/svg">
<path opacity="0.4" d="M16.4593 29.3333C23.8231 29.3333 29.7926 23.3638 29.7926 16C29.7926 8.63616 23.8231 2.66663 16.4593 2.66663C9.09551 2.66663 3.12598 8.63616 3.12598 16C3.12598 23.3638 9.09551 29.3333 16.4593 29.3333Z" fill="#11B8B2"/>
<path d="M20.8336 15.0667H18.5669V9.7867C18.5669 8.56003 17.9003 8.3067 17.0869 9.2267L16.5003 9.89336L11.5403 15.5334C10.8603 16.3067 11.1403 16.9334 12.1669 16.9334H14.4336V22.2134C14.4336 23.44 15.1003 23.6934 15.9136 22.7734L16.5003 22.1067L21.4603 16.4667C22.1403 15.6934 21.8603 15.0667 20.8336 15.0667Z" fill="#11B8B2"/>
</svg>
