<svg width="17" height="16" viewBox="0 0 17 16" fill="none" xmlns="http://www.w3.org/2000/svg">
<path opacity="0.4" d="M10.766 1.33337H6.89935C6.44602 1.33337 5.80601 1.60004 5.48601 1.92004L2.75269 4.65338C2.43269 4.97338 2.16602 5.61338 2.16602 6.06671V9.93337C2.16602 10.3867 2.43269 11.0267 2.75269 11.3467L5.48601 14.08C5.80601 14.4 6.44602 14.6667 6.89935 14.6667H10.766C11.2193 14.6667 11.8594 14.4 12.1794 14.08L14.9127 11.3467C15.2327 11.0267 15.4993 10.3867 15.4993 9.93337V6.06671C15.4993 5.61338 15.2327 4.97338 14.9127 4.65338L12.1794 1.92004C11.8594 1.60004 11.2193 1.33337 10.766 1.33337Z" fill="#11CEC7"/>
<path d="M2.84599 14.5C2.71932 14.5 2.59266 14.4534 2.49266 14.3534C2.29932 14.16 2.29932 13.84 2.49266 13.6467L14.4793 1.66001C14.6727 1.46668 14.9927 1.46668 15.186 1.66001C15.3793 1.85335 15.3793 2.17335 15.186 2.36668L3.19932 14.3534C3.10599 14.4534 2.97932 14.5 2.84599 14.5Z" fill="#11CEC7"/>
</svg>
