<svg width="14" height="14" viewBox="0 0 14 14" fill="none" xmlns="http://www.w3.org/2000/svg">
<g clip-path="url(#clip0_126_5265)">
<path d="M10.1916 4.06662C10.1101 4.14859 10.0643 4.25948 10.0643 4.37506C10.0643 4.49064 10.1101 4.60152 10.1916 4.6835L12.0684 6.56256L0.875 6.56256C0.758968 6.56256 0.647688 6.60865 0.565641 6.6907C0.483594 6.77275 0.4375 6.88403 0.4375 7.00006C0.4375 7.11609 0.483594 7.22737 0.565641 7.30942C0.647688 7.39146 0.758968 7.43756 0.875 7.43756L12.0684 7.43756L10.1916 9.31662C10.1199 9.40032 10.0824 9.50797 10.0867 9.61808C10.0909 9.72819 10.1366 9.83264 10.2145 9.91056C10.2924 9.98847 10.3969 10.0341 10.507 10.0384C10.6171 10.0426 10.7247 10.0052 10.8084 9.9335L13.4334 7.3085C13.4744 7.26782 13.507 7.21944 13.5292 7.16612C13.5514 7.11281 13.5628 7.05563 13.5628 6.99787C13.5628 6.94012 13.5514 6.88293 13.5292 6.82962C13.507 6.77631 13.4744 6.72792 13.4334 6.68725L10.8084 4.06225C10.7259 3.98134 10.6147 3.93639 10.4991 3.93721C10.3835 3.93803 10.273 3.98455 10.1916 4.06662Z" fill="white"/>
</g>
<defs>
<clipPath id="clip0_126_5265">
<rect width="14" height="14" fill="white" transform="translate(0 14) rotate(-90)"/>
</clipPath>
</defs>
</svg>
