<svg width="20" height="20" viewBox="0 0 20 20" fill="none" xmlns="http://www.w3.org/2000/svg">
<path d="M5.40976 15.8162H2.92642" stroke="#01100F" stroke-width="1.25" stroke-miterlimit="10" stroke-linecap="round" stroke-linejoin="round"/>
<path d="M4.16666 14.5996V17.0913" stroke="#01100F" stroke-width="1.25" stroke-miterlimit="10" stroke-linecap="round" stroke-linejoin="round"/>
<path d="M7.01652 17.5501C7.32486 17.0501 7.49986 16.4584 7.49986 15.8334C7.49986 13.9917 6.00819 12.5001 4.16652 12.5001M7.01652 17.5501C6.44152 18.5167 5.38319 19.1667 4.16652 19.1667C2.94986 19.1667 1.89152 18.5167 1.31652 17.5501C1.00819 17.0501 0.833191 16.4584 0.833191 15.8334C0.833191 13.9917 2.32486 12.5001 4.16652 12.5001M7.01652 17.5501C6.84152 17.8501 6.61653 18.1167 6.35819 18.3334H14.1665C16.6665 18.3334 18.3332 16.6667 18.3332 14.1667V10.0001C18.3332 7.71674 16.9415 6.12507 14.7915 5.87507C14.5915 5.84174 14.3832 5.83341 14.1665 5.83341H5.83319C5.59986 5.83341 5.37486 5.85008 5.15819 5.88341C3.03319 6.15008 1.66653 7.73341 1.66653 10.0001V13.6334C2.27486 12.9417 3.16652 12.5001 4.16652 12.5001M18.3332 10.4167H15.8332C14.9165 10.4167 14.1665 11.1667 14.1665 12.0834C14.1665 13.0001 14.9165 13.7501 15.8332 13.7501H18.3332M14.7927 5.87506C14.5927 5.84172 14.3844 5.8334 14.1677 5.8334H5.83437C5.60104 5.8334 5.37604 5.85006 5.15937 5.8834C5.27604 5.65006 5.4427 5.43342 5.6427 5.23342L8.35103 2.51675C9.49269 1.38341 11.3427 1.38341 12.4844 2.51675L13.9427 3.99171C14.476 4.51671 14.7594 5.18339 14.7927 5.87506Z" stroke="#01100F" stroke-width="1.25" stroke-linecap="round" stroke-linejoin="round"/>
</svg>
