<svg width="24" height="24" viewBox="0 0 24 24" fill="none" xmlns="http://www.w3.org/2000/svg">
<path d="M19.9683 3.85718C20.9508 3.85718 21.6876 4.10123 22.1789 4.58934C22.6442 5.05175 22.8892 5.72759 22.9137 6.61685L22.9157 6.76704V16.9891C22.9157 17.9528 22.6701 18.6771 22.1789 19.1621C21.7135 19.6216 21.0277 19.8634 20.1214 19.8876L19.9683 19.8896H3.80455C2.82208 19.8896 2.08523 19.6471 1.594 19.1621C1.12862 18.7027 0.883682 18.0284 0.859188 17.1393L0.857147 16.9891V6.76704C0.857147 5.79709 1.10276 5.06963 1.594 4.58465C2.05938 4.12519 2.7452 3.88337 3.65146 3.85919L3.80455 3.85718H19.9683ZM2.36839 16.9046C2.36839 17.3927 2.49355 17.7604 2.74385 18.0076C2.97492 18.2357 3.29929 18.3586 3.71697 18.3761L3.82333 18.3783L11.3139 18.378V13.4034H11.2482C11.0917 13.8853 10.8461 14.3452 10.5113 14.7832C10.1765 15.2213 9.7948 15.6155 9.36615 15.966C8.93748 16.3164 8.50257 16.6027 8.0614 16.8248C7.62023 17.047 7.2213 17.1862 6.8646 17.2425C6.59552 17.2801 6.38432 17.2206 6.231 17.0642C6.07769 16.9078 6.00103 16.7263 6.00103 16.5198C6.00103 16.2945 6.06674 16.1114 6.19815 15.9707C6.31314 15.8475 6.46885 15.7686 6.66527 15.734L6.75195 15.7219C7.07736 15.6844 7.42467 15.5639 7.79388 15.3605C8.16308 15.1571 8.52134 14.9068 8.86865 14.6096C9.21595 14.3123 9.52571 13.9995 9.79793 13.6709C10.0361 13.3835 10.2228 13.1116 10.358 12.8552L10.4128 12.7463L2.36829 12.7462L2.36839 16.9046ZM21.4041 12.7462L13.3602 12.7463C13.4978 13.0342 13.7028 13.3424 13.975 13.6709C14.2472 13.9995 14.557 14.3123 14.9043 14.6096C15.2516 14.9068 15.6083 15.1571 15.9743 15.3605C16.2997 15.5413 16.6091 15.6566 16.9023 15.7063L17.0116 15.7219C17.2556 15.7469 17.4434 15.8299 17.5748 15.9707C17.7061 16.1114 17.7718 16.2945 17.7718 16.5198C17.7718 16.7263 17.6952 16.9078 17.5419 17.0642C17.3886 17.2206 17.1774 17.2801 16.9083 17.2425C16.5454 17.1862 16.1449 17.047 15.7068 16.8248C15.2688 16.6027 14.8354 16.3164 14.4068 15.966C13.9781 15.6155 13.5964 15.2213 13.2616 14.7832C12.964 14.3939 12.7369 13.9872 12.5802 13.5632L12.5247 13.4034H12.4496V18.378L19.9497 18.3783C20.4127 18.3783 20.7709 18.2547 21.0243 18.0076C21.2583 17.7794 21.3843 17.4486 21.4023 17.0151L21.4045 16.9046L21.4041 12.7462ZM20.0547 5.37064L19.9497 5.36842L12.4496 5.36832V8.58805C12.6562 8.18756 12.908 7.84182 13.2053 7.55083C13.5025 7.25985 13.8295 7.03613 14.1862 6.87969C14.5429 6.72324 14.9152 6.64502 15.3032 6.64502C15.979 6.64502 16.5407 6.86874 16.9881 7.31617C17.4355 7.76359 17.6592 8.33149 17.6592 9.01984C17.6592 9.41407 17.5748 9.78172 17.4058 10.1228C17.2368 10.4638 17.0006 10.7689 16.6971 11.038C16.4316 11.2734 16.1289 11.4753 15.789 11.6437L15.6411 11.7138H21.4041L21.4045 6.85152C21.4045 6.36342 21.2778 5.99421 21.0243 5.7439C20.7904 5.51284 20.4672 5.38842 20.0547 5.37064ZM11.3139 5.36832L3.82333 5.36842C3.354 5.36842 2.99417 5.49358 2.74385 5.7439C2.5128 5.97496 2.38839 6.30732 2.37061 6.741L2.36839 6.85152L2.36829 11.7138H8.1224C7.72817 11.5323 7.3793 11.307 7.0758 11.038C6.77229 10.7689 6.5345 10.4638 6.36242 10.1228C6.19033 9.78172 6.10428 9.41407 6.10428 9.01984C6.10428 8.33149 6.32956 7.76359 6.78011 7.31617C7.23067 6.86874 7.79074 6.64502 8.46034 6.64502C8.85457 6.64502 9.23003 6.72324 9.58672 6.87969C9.94341 7.03613 10.2704 7.25985 10.5676 7.55083C10.8277 7.80544 11.0507 8.10198 11.2365 8.44043L11.3139 8.58805V5.36832ZM8.53543 7.97791C8.19751 7.97791 7.92843 8.0796 7.72818 8.28299C7.52793 8.48637 7.4278 8.7664 7.4278 9.12309C7.4278 9.41721 7.51854 9.70975 7.70001 10.0007C7.88149 10.2917 8.13179 10.5546 8.45094 10.7892C8.77009 11.0239 9.13617 11.2132 9.54918 11.3571C9.91057 11.483 10.2911 11.5539 10.6908 11.5696L10.8633 11.573H11.1449V11.3102C11.1449 10.8596 11.0761 10.4341 10.9384 10.0336C10.8007 9.6331 10.6099 9.27797 10.3658 8.96821C10.1218 8.65845 9.8433 8.41596 9.53041 8.24074C9.21753 8.06552 8.88586 7.97791 8.53543 7.97791ZM15.2281 7.97791C14.8839 7.97791 14.5554 8.06552 14.2425 8.24074C13.9296 8.41596 13.6512 8.65845 13.4071 8.96821C13.163 9.27797 12.9706 9.6331 12.8298 10.0336C12.7066 10.384 12.6373 10.7536 12.6219 11.1424L12.6186 11.3102V11.573H12.9002C13.3696 11.573 13.8107 11.501 14.2237 11.3571C14.6367 11.2132 15.0013 11.0239 15.3173 10.7892C15.6333 10.5546 15.882 10.2917 16.0635 10.0007C16.245 9.70975 16.3357 9.41721 16.3357 9.12309C16.3357 8.7664 16.2372 8.48637 16.0401 8.28299C15.8429 8.0796 15.5723 7.97791 15.2281 7.97791Z" fill="#11CEC7"/>
</svg>
