<svg width="32" height="32" viewBox="0 0 32 32" fill="none" xmlns="http://www.w3.org/2000/svg">
<path fill-rule="evenodd" clip-rule="evenodd" d="M9.33334 2.66797C7.12421 2.66797 5.33334 4.45884 5.33334 6.66797V25.3346C5.33334 27.5438 7.12421 29.3346 9.33334 29.3346H14.6667V22.668V22.5858C14.6665 21.7137 14.6665 20.93 14.7517 20.2957C14.8449 19.6033 15.0611 18.8929 15.6429 18.3109C16.2249 17.729 16.9353 17.5129 17.6277 17.4197C18.2621 17.3345 19.0457 17.3345 19.9179 17.3346H20H26.6667V6.66797C26.6667 4.45884 24.8759 2.66797 22.6667 2.66797H9.33334ZM26.3073 20.0013H20C19.0195 20.0013 18.4183 20.0041 17.9831 20.0626C17.6007 20.1141 17.5368 20.1872 17.5292 20.1958L17.5279 20.1972C17.5192 20.2048 17.4461 20.2686 17.3947 20.651C17.3361 21.0862 17.3333 21.6874 17.3333 22.668V28.9753C17.7653 28.7788 18.1629 28.505 18.5049 28.163L25.4951 21.1729C25.8371 20.8309 26.1108 20.4333 26.3073 20.0013Z" fill="#11CEC7"/>
</svg>
