<svg width="24" height="24" viewBox="0 0 24 24" fill="none" xmlns="http://www.w3.org/2000/svg">
<path d="M12 8V12L14.5 14.5" stroke="#01100F" stroke-opacity="0.4" stroke-width="1.5" stroke-linecap="round" stroke-linejoin="round"/>
<path d="M4.33773 6.87053L3.58774 6.8743C3.58981 7.28557 3.92269 7.61845 4.33396 7.62052L4.33773 6.87053ZM6.87951 7.63331C7.29372 7.6354 7.63119 7.3013 7.63327 6.88709C7.63535 6.47288 7.30126 6.13541 6.88705 6.13333L6.87951 7.63331ZM5.07493 4.32121C5.07285 3.907 4.73538 3.57291 4.32117 3.57499C3.90696 3.57707 3.57287 3.91454 3.57495 4.32875L5.07493 4.32121ZM3.82658 10.7849C3.88283 10.3745 3.59575 9.99628 3.18537 9.94003C2.775 9.88378 2.39672 10.1708 2.34047 10.5812L3.82658 10.7849ZM18.8622 5.13778C15.042 1.31759 8.8687 1.2789 5.07378 5.07382L6.13444 6.13448C9.33355 2.93537 14.5571 2.95396 17.8016 6.19844L18.8622 5.13778ZM5.13774 18.8622C8.95793 22.6824 15.1313 22.7211 18.9262 18.9262L17.8655 17.8655C14.6664 21.0646 9.44288 21.0461 6.1984 17.8016L5.13774 18.8622ZM18.9262 18.9262C22.7211 15.1313 22.6824 8.95797 18.8622 5.13778L17.8016 6.19844C21.0461 9.44292 21.0646 14.6664 17.8655 17.8655L18.9262 18.9262ZM5.07378 5.07382L3.8074 6.3402L4.86806 7.40086L6.13444 6.13448L5.07378 5.07382ZM4.33396 7.62052L6.87951 7.63331L6.88705 6.13333L4.3415 6.12054L4.33396 7.62052ZM5.08772 6.86676L5.07493 4.32121L3.57495 4.32875L3.58774 6.8743L5.08772 6.86676ZM2.34047 10.5812C1.93904 13.5099 2.87389 16.5984 5.13774 18.8622L6.1984 17.8016C4.27782 15.881 3.4866 13.2652 3.82658 10.7849L2.34047 10.5812Z" fill="#01100F" fill-opacity="0.4"/>
</svg>
