<svg width="24" height="24" viewBox="0 0 24 24" fill="none" xmlns="http://www.w3.org/2000/svg">
<path d="M17.417 1.84961C18.5201 1.84964 19.2886 2.1485 19.7832 2.59473C20.2779 3.04113 20.4844 3.62293 20.4844 4.15918C20.4844 5.16265 19.7958 6.33051 18.4053 7.24023C18.1666 7.39634 17.9061 7.54411 17.625 7.68359H20.75C21.5219 7.68359 22.1502 8.31115 22.1504 9.08301V11.583C22.1504 12.355 21.522 12.9834 20.75 12.9834H20.4834V20.75C20.4834 21.522 19.855 22.1504 19.083 22.1504H4.91699C4.14498 22.1504 3.5166 21.522 3.5166 20.75V12.9834H3.25C2.47799 12.9834 1.84961 12.355 1.84961 11.583V9.08301C1.84979 8.31115 2.4781 7.68359 3.25 7.68359H6.375C6.09413 7.54417 5.83419 7.39626 5.5957 7.24023C4.20514 6.33048 3.51661 5.1627 3.5166 4.15918C3.5166 3.48259 3.82255 2.8806 4.37109 2.46875C4.9176 2.05823 5.68671 1.84964 6.58398 1.84961C9.1049 1.84961 10.6012 3.43506 11.46 5C11.6781 5.39757 11.8556 5.79595 12 6.16895C12.1444 5.79586 12.3228 5.39769 12.541 5C13.3998 3.43506 14.8961 1.84961 17.417 1.84961ZM12.5664 21.0166H19.083C19.2293 21.0166 19.3496 20.8963 19.3496 20.75V12.9834H12.5664V21.0166ZM4.65039 20.75C4.65039 20.8963 4.77067 21.0166 4.91699 21.0166H11.4336V12.9834H4.65039V20.75ZM12.5664 11.8496H20.75C20.8963 11.8496 21.0166 11.7293 21.0166 11.583V9.08301C21.0164 8.93683 20.8962 8.81641 20.75 8.81641H12.5664V11.8496ZM3.25 8.81641C3.10378 8.81641 2.98358 8.93683 2.9834 9.08301V11.583C2.9834 11.7293 3.10368 11.8496 3.25 11.8496H11.4336V8.81641H3.25ZM6.58398 2.9834C5.95803 2.98342 5.46861 3.1078 5.14062 3.31641C4.81847 3.52132 4.65039 3.80715 4.65039 4.15918C4.6504 4.82439 5.2021 5.66567 6.3623 6.36816C7.4802 7.04495 9.13627 7.57236 11.3027 7.66699C11.1318 6.97531 10.7781 5.87289 10.1045 4.91113C9.36736 3.85873 8.25638 2.9834 6.58398 2.9834ZM17.417 2.9834C15.7669 2.9834 14.6588 3.85989 13.918 4.91406C13.2423 5.87554 12.8796 6.97619 12.7031 7.66504C14.8679 7.57031 16.5226 7.04471 17.6396 6.36816C18.7993 5.66575 19.3506 4.82406 19.3506 4.15918C19.3506 3.87826 19.25 3.64285 19.0439 3.45312L18.9492 3.375C18.6189 3.12651 18.0944 2.98342 17.417 2.9834Z" fill="#999F9F" stroke="#999F9F" stroke-width="0.3"/>
</svg>
