<svg width="24" height="24" viewBox="0 0 24 24" fill="none" xmlns="http://www.w3.org/2000/svg">
<path fill-rule="evenodd" clip-rule="evenodd" d="M10.5249 3.14243C9.90045 3.4339 9.1543 3.87736 8.0968 4.5073L6.71196 5.33224C5.54765 6.02582 4.72603 6.51643 4.12316 6.97C3.53469 7.41271 3.21243 7.77904 3.01289 8.19527C2.81351 8.61114 2.73059 9.08946 2.75554 9.82078C2.78113 10.5706 2.91559 11.5124 3.10764 12.8472C3.10764 12.8472 3.10764 12.8472 3.10764 12.8472L3.38641 14.7845C3.63292 16.4977 3.80912 17.7123 4.06223 18.6291C4.30959 19.525 4.60735 20.0437 5.03962 20.416C5.4725 20.7887 6.03367 21.0088 6.96421 21.1254C7.91526 21.2447 9.15245 21.2461 10.8951 21.2461H13.1073C14.85 21.2461 16.0872 21.2447 17.0382 21.1254C17.9688 21.0088 18.5299 20.7887 18.9628 20.416C19.3951 20.0438 19.6928 19.525 19.9402 18.6291C20.1933 17.7123 20.3695 16.4977 20.6161 14.7845C20.6161 14.7845 20.6161 14.7845 20.6161 14.7845L20.8948 12.8472L20.8948 12.8472C21.0868 11.5124 21.2213 10.5706 21.2469 9.82079C21.2719 9.08948 21.1889 8.61116 20.9895 8.19529L20.9895 8.19524C20.79 7.77903 20.4677 7.41271 19.8793 6.97C19.2764 6.51643 18.4548 6.02583 17.2905 5.33225C17.2905 5.33225 17.2905 5.33225 17.2905 5.33225L15.9056 4.50731C14.8482 3.87737 14.102 3.4339 13.4775 3.14243C12.8684 2.85813 12.4305 2.74609 12.0012 2.74609C11.572 2.74609 11.134 2.85813 10.5249 3.14243ZM9.8905 1.7832C10.6146 1.44521 11.2762 1.24609 12.0012 1.24609C12.7263 1.24609 13.3878 1.44521 14.1119 1.7832C14.813 2.11043 15.6238 2.59341 16.6398 3.19871L16.6732 3.21862L18.0581 4.04356L18.0953 4.06567C19.2142 4.73224 20.1059 5.2634 20.7811 5.77134C21.4781 6.29571 22.0012 6.83568 22.3421 7.5468C22.6832 8.25827 22.7757 9.00288 22.746 9.87193C22.7173 10.7132 22.5701 11.736 22.3856 13.0184L22.3795 13.0608L22.3795 13.0608L22.1008 14.9981L22.1008 14.9981L22.0933 15.0502C21.8559 16.6999 21.6675 18.0091 21.3861 19.0283C21.096 20.079 20.6844 20.913 19.9416 21.5526L19.9416 21.5526C19.1994 22.1917 18.3114 22.4775 17.2249 22.6138C16.1697 22.7461 14.8384 22.7461 13.1589 22.7461H10.8435C9.16403 22.7461 7.83276 22.7461 6.77756 22.6138C5.69106 22.4775 4.80306 22.1917 4.06088 21.5526C3.31807 20.913 2.90645 20.0791 2.61633 19.0283C2.33489 18.0089 2.14652 16.6996 1.90912 15.0497L1.62294 13.0608L1.61677 13.018C1.43226 11.7357 1.28512 10.7131 1.25641 9.87193C1.22676 9.00289 1.31921 8.25829 1.66029 7.54682C2.00121 6.8357 2.52436 6.29572 3.22137 5.77134C3.89656 5.26337 4.78831 4.73217 5.9074 4.06555L5.9443 4.04356L7.36298 3.19846C8.3789 2.59327 9.18952 2.11038 9.8905 1.7832Z" fill="#01100F" fill-opacity="0.4"/>
<path fill-rule="evenodd" clip-rule="evenodd" d="M8.25024 17.9961C8.25024 17.5819 8.58603 17.2461 9.00024 17.2461H15.0002C15.4145 17.2461 15.7502 17.5819 15.7502 17.9961C15.7502 18.4103 15.4145 18.7461 15.0002 18.7461H9.00024C8.58603 18.7461 8.25024 18.4103 8.25024 17.9961Z" fill="#01100F" fill-opacity="0.4"/>
</svg>
