<svg width="24" height="24" viewBox="0 0 24 24" fill="none" xmlns="http://www.w3.org/2000/svg">
<path d="M2.50006 12C2.50006 7.52166 2.50006 5.28249 3.8913 3.89124C5.28255 2.5 7.52172 2.5 12.0001 2.5C16.4784 2.5 18.7176 2.5 20.1089 3.89124C21.5001 5.28249 21.5001 7.52166 21.5001 12C21.5001 16.4783 21.5001 18.7175 20.1089 20.1088C18.7176 21.5 16.4784 21.5 12.0001 21.5C7.52172 21.5 5.28255 21.5 3.8913 20.1088C2.50006 18.7175 2.50006 16.4783 2.50006 12Z" stroke="#11CEC7" stroke-width="1.5"/>
<path d="M7.99994 14.0844L9.3171 15.9429C9.60771 16.3529 9.75301 16.5579 9.87648 16.4857C9.99994 16.4136 9.99994 16.1237 9.99994 15.5438V7.5" stroke="#11CEC7" stroke-width="1.5"/>
<path d="M15.9999 9.91559L14.6827 8.05715C14.3921 7.64711 14.2468 7.4421 14.1234 7.51425C13.9999 7.58641 13.9999 7.87635 13.9999 8.45623V16.5" stroke="#11CEC7" stroke-width="1.5"/>
</svg>
