<svg width="24" height="24" viewBox="0 0 24 24" fill="none" xmlns="http://www.w3.org/2000/svg">
<path d="M1.33307 8.07433C0.921538 8.44266 0.886517 9.07485 1.25485 9.48638C1.62317 9.89791 2.25537 9.93293 2.66689 9.5646L1.33307 8.07433ZM21.3331 9.5646C21.7446 9.93293 22.3768 9.89791 22.7451 9.48638C23.1135 9.07485 23.0784 8.44266 22.6669 8.07433L21.3331 9.5646ZM12 19C11.4477 19 11 19.4477 11 20C11 20.5523 11.4477 21 12 21V19ZM12.01 21C12.5623 21 13.01 20.5523 13.01 20C13.01 19.4477 12.5623 19 12.01 19V21ZM14.6905 17.04C15.099 17.4116 15.7315 17.3817 16.1031 16.9732C16.4748 16.5646 16.4448 15.9322 16.0363 15.5605L14.6905 17.04ZM18.0539 13.3403C18.4624 13.7119 19.0949 13.682 19.4665 13.2734C19.8381 12.8649 19.8082 12.2324 19.3997 11.8608L18.0539 13.3403ZM7.9637 15.5605C7.55515 15.9322 7.52522 16.5646 7.89685 16.9732C8.26848 17.3817 8.90093 17.4116 9.30948 17.04L7.9637 15.5605ZM4.60032 11.8608C4.19177 12.2324 4.16183 12.8649 4.53346 13.2734C4.90509 13.682 5.53754 13.7119 5.94609 13.3403L4.60032 11.8608ZM2.66689 9.5646C5.14442 7.34716 8.41369 6 12 6V4C7.90273 4 4.1631 5.54138 1.33307 8.07433L2.66689 9.5646ZM12 6C15.5863 6 18.8556 7.34716 21.3331 9.5646L22.6669 8.07433C19.8369 5.54138 16.0972 4 12 4V6ZM12 21H12.01V19H12V21ZM12 16C13.0367 16 13.9793 16.3931 14.6905 17.04L16.0363 15.5605C14.9713 14.5918 13.5536 14 12 14V16ZM12 11C14.3319 11 16.4546 11.8855 18.0539 13.3403L19.3997 11.8608C17.4466 10.0842 14.8487 9 12 9V11ZM9.30948 17.04C10.0207 16.3931 10.9633 16 12 16V14C10.4464 14 9.0287 14.5918 7.9637 15.5605L9.30948 17.04ZM5.94609 13.3403C7.54542 11.8855 9.66813 11 12 11V9C9.15125 9 6.55342 10.0842 4.60032 11.8608L5.94609 13.3403Z" fill="#11CEC7"/>
</svg>
