<svg width="24" height="24" viewBox="0 0 24 24" fill="none" xmlns="http://www.w3.org/2000/svg">
<path d="M9.99925 14.6602V16.2862C9.99548 16.6288 9.90374 16.9647 9.73283 17.2617C9.56193 17.5586 9.31759 17.8067 9.02325 17.9822C8.39839 18.445 7.89009 19.0471 7.53874 19.7408C7.18738 20.4345 7.00266 21.2006 6.99925 21.9782" stroke="#FE9A00" stroke-width="1.5" stroke-linecap="round" stroke-linejoin="round"/>
<path d="M13.9985 14.6602V16.2862C14.0023 16.6288 14.094 16.9647 14.2649 17.2617C14.4358 17.5586 14.6801 17.8067 14.9745 17.9822C15.5993 18.445 16.1076 19.0471 16.459 19.7408C16.8104 20.4345 16.9951 21.2006 16.9985 21.9782" stroke="#FE9A00" stroke-width="1.5" stroke-linecap="round" stroke-linejoin="round"/>
<path d="M17.9981 9H19.4981C20.1611 9 20.797 8.73661 21.2658 8.26777C21.7347 7.79893 21.9981 7.16304 21.9981 6.5C21.9981 5.83696 21.7347 5.20107 21.2658 4.73223C20.797 4.26339 20.1611 4 19.4981 4H17.9981" stroke="#FE9A00" stroke-width="1.5" stroke-linecap="round" stroke-linejoin="round"/>
<path d="M3.99957 21.9961H19.9979" stroke="#FE9A00" stroke-width="1.5" stroke-linecap="round" stroke-linejoin="round"/>
<path d="M5.99936 8.99925C5.99936 10.5904 6.63143 12.1163 7.75653 13.2414C8.88163 14.3665 10.4076 14.9986 11.9987 14.9986C13.5898 14.9986 15.1158 14.3665 16.2409 13.2414C17.366 12.1163 17.9981 10.5904 17.9981 8.99925V2.99989C17.9981 2.7347 17.8927 2.48038 17.7052 2.29286C17.5177 2.10535 17.2634 2 16.9982 2H6.99925C6.73406 2 6.47974 2.10535 6.29222 2.29286C6.1047 2.48038 5.99936 2.7347 5.99936 2.99989V8.99925Z" stroke="#FE9A00" stroke-width="1.5" stroke-linecap="round" stroke-linejoin="round"/>
<path d="M5.99979 9H4.49979C3.83675 9 3.20086 8.73661 2.73202 8.26777C2.26318 7.79893 1.99979 7.16304 1.99979 6.5C1.99979 5.83696 2.26318 5.20107 2.73202 4.73223C3.20086 4.26339 3.83675 4 4.49979 4H5.99979" stroke="#FE9A00" stroke-width="1.5" stroke-linecap="round" stroke-linejoin="round"/>
</svg>
