<svg width="33" height="32" viewBox="0 0 33 32" fill="none" xmlns="http://www.w3.org/2000/svg">
<path opacity="0.4" d="M29.8332 14.6667V17.3333C29.8332 22.6667 28.4998 24 23.1665 24H9.83317C4.49984 24 3.1665 22.6667 3.1665 17.3333V14.6667C3.1665 10.2133 4.09984 8.54667 7.49984 8.13334C8.0865 8.05334 8.75317 8.01333 9.49984 8H23.4998C24.2465 8.01333 24.9132 8.05334 25.4998 8.13334C28.8998 8.54667 29.8332 10.2133 29.8332 14.6667Z" fill="#11B8B2"/>
<path d="M11.1668 17.3333C10.9935 17.3333 10.8202 17.2933 10.6602 17.2266C10.4868 17.1599 10.3535 17.0666 10.2202 16.9466C9.98017 16.6933 9.8335 16.3466 9.8335 15.9999C9.8335 15.8266 9.87348 15.6533 9.94014 15.4933C10.0068 15.3333 10.1002 15.1866 10.2202 15.0533C10.3535 14.9333 10.4868 14.8399 10.6602 14.7733C11.1535 14.5599 11.7402 14.6799 12.1135 15.0533C12.2335 15.1866 12.3268 15.3333 12.3935 15.4933C12.4602 15.6533 12.5002 15.8266 12.5002 15.9999C12.5002 16.3466 12.3535 16.6933 12.1135 16.9466C11.8602 17.1866 11.5135 17.3333 11.1668 17.3333Z" fill="#11B8B2"/>
<path d="M16.4998 17.3332C16.1398 17.3332 15.8065 17.1866 15.5532 16.9466C15.4332 16.8132 15.3398 16.6666 15.2732 16.5066C15.2065 16.3466 15.1665 16.1732 15.1665 15.9999C15.1665 15.6399 15.3132 15.3066 15.5532 15.0532C16.0465 14.5599 16.9398 14.5599 17.4465 15.0532C17.6865 15.3066 17.8332 15.6399 17.8332 15.9999C17.8332 16.1732 17.7932 16.3466 17.7265 16.5066C17.6599 16.6666 17.5665 16.8132 17.4465 16.9466C17.1932 17.1866 16.8465 17.3332 16.4998 17.3332Z" fill="#11B8B2"/>
<path d="M21.8333 17.3332C21.4867 17.3332 21.14 17.1866 20.8867 16.9466C20.6467 16.6932 20.5 16.3599 20.5 15.9999C20.5 15.6399 20.6467 15.3066 20.8867 15.0532C21.3933 14.5599 22.2867 14.5599 22.78 15.0532C22.8333 15.1199 22.8866 15.1866 22.94 15.2666C22.9933 15.3332 23.0334 15.4132 23.06 15.4932C23.1 15.5732 23.1267 15.6532 23.14 15.7332C23.1533 15.8266 23.1667 15.9199 23.1667 15.9999C23.1667 16.3466 23.02 16.6932 22.78 16.9466C22.5267 17.1866 22.18 17.3332 21.8333 17.3332Z" fill="#11B8B2"/>
</svg>
