<svg width="33" height="32" viewBox="0 0 33 32" fill="none" xmlns="http://www.w3.org/2000/svg">
<path opacity="0.4" d="M23.1665 27.3333H9.83317C5.83317 27.3333 3.1665 25.3333 3.1665 20.6666V11.3333C3.1665 6.66663 5.83317 4.66663 9.83317 4.66663H23.1665C27.1665 4.66663 29.8332 6.66663 29.8332 11.3333V20.6666C29.8332 25.3333 27.1665 27.3333 23.1665 27.3333Z" fill="#11B8B2"/>
<path d="M16.5 20C18.7091 20 20.5 18.2091 20.5 16C20.5 13.7909 18.7091 12 16.5 12C14.2909 12 12.5 13.7909 12.5 16C12.5 18.2091 14.2909 20 16.5 20Z" fill="#11B8B2"/>
<path d="M6.5 14.3333C5.95333 14.3333 5.5 13.88 5.5 13.3333V11.3333C5.5 8.94667 7.44667 7 9.83333 7H11.8333C12.38 7 12.8333 7.45333 12.8333 8C12.8333 8.54667 12.38 9 11.8333 9H9.83333C8.55333 9 7.5 10.0533 7.5 11.3333V13.3333C7.5 13.88 7.04667 14.3333 6.5 14.3333Z" fill="#11B8B2"/>
<path d="M26.4998 14.3333C25.9532 14.3333 25.4998 13.88 25.4998 13.3333V11.3333C25.4998 10.0533 24.4465 9 23.1665 9H21.1665C20.6198 9 20.1665 8.54667 20.1665 8C20.1665 7.45333 20.6198 7 21.1665 7H23.1665C25.5532 7 27.4998 8.94667 27.4998 11.3333V13.3333C27.4998 13.88 27.0465 14.3333 26.4998 14.3333Z" fill="#11B8B2"/>
<path d="M11.8333 25H9.83333C7.44667 25 5.5 23.0533 5.5 20.6666V18.6666C5.5 18.12 5.95333 17.6666 6.5 17.6666C7.04667 17.6666 7.5 18.12 7.5 18.6666V20.6666C7.5 21.9466 8.55333 23 9.83333 23H11.8333C12.38 23 12.8333 23.4533 12.8333 24C12.8333 24.5466 12.38 25 11.8333 25Z" fill="#11B8B2"/>
<path d="M23.1665 25H21.1665C20.6198 25 20.1665 24.5466 20.1665 24C20.1665 23.4533 20.6198 23 21.1665 23H23.1665C24.4465 23 25.4998 21.9466 25.4998 20.6666V18.6666C25.4998 18.12 25.9532 17.6666 26.4998 17.6666C27.0465 17.6666 27.4998 18.12 27.4998 18.6666V20.6666C27.4998 23.0533 25.5532 25 23.1665 25Z" fill="#11B8B2"/>
</svg>
