<svg width="24" height="24" viewBox="0 0 24 24" fill="none" xmlns="http://www.w3.org/2000/svg">
<path d="M12.02 2.91016C8.70997 2.91016 6.01997 5.60016 6.01997 8.91016V11.8001C6.01997 12.4101 5.75997 13.3401 5.44997 13.8601L4.29997 15.7701C3.58997 16.9501 4.07997 18.2601 5.37997 18.7001C9.68997 20.1401 14.34 20.1401 18.65 18.7001C19.86 18.3001 20.39 16.8701 19.73 15.7701L18.58 13.8601C18.28 13.3401 18.02 12.4101 18.02 11.8001V8.91016C18.02 5.61016 15.32 2.91016 12.02 2.91016Z" stroke="#11CEC7" stroke-width="1.5" stroke-miterlimit="10" stroke-linecap="round"/>
<path d="M13.87 3.20141C13.56 3.11141 13.24 3.04141 12.91 3.00141C11.95 2.88141 11.03 2.95141 10.17 3.20141C10.46 2.46141 11.18 1.94141 12.02 1.94141C12.86 1.94141 13.58 2.46141 13.87 3.20141Z" stroke="#11CEC7" stroke-width="1.5" stroke-miterlimit="10" stroke-linecap="round" stroke-linejoin="round"/>
<path d="M15.02 19.0586C15.02 20.7086 13.67 22.0586 12.02 22.0586C11.2 22.0586 10.44 21.7186 9.90002 21.1786C9.36002 20.6386 9.02002 19.8786 9.02002 19.0586" stroke="#11CEC7" stroke-width="1.5" stroke-miterlimit="10"/>
</svg>
