<svg width="86" height="86" viewBox="0 0 86 86" fill="none" xmlns="http://www.w3.org/2000/svg">
<rect width="86" height="86" rx="43" fill="#11CEC7" fill-opacity="0.08"/>
<rect x="13" y="13" width="60" height="60" rx="30" fill="#11CEC7"/>
<path d="M42.04 40.2795C42.04 40.8097 42.4698 41.2395 43 41.2395C43.5302 41.2395 43.96 40.8097 43.96 40.2795H42.04ZM43.96 32.7608C43.96 32.2306 43.5302 31.8008 43 31.8008C42.4698 31.8008 42.04 32.2306 42.04 32.7608H43.96ZM39.5579 36.1676C40.0404 35.9479 40.2534 35.3786 40.0338 34.8961C39.814 34.4135 39.2447 34.2005 38.7622 34.4202L39.5579 36.1676ZM34.04 43.2056L33.0799 43.2006L33.0801 43.2167L34.04 43.2056ZM43 51.9608L43.011 51.0008C43.0037 51.0008 42.9963 51.0008 42.989 51.0008L43 51.9608ZM51.96 43.2056L52.9202 43.2167L52.92 43.2006L51.96 43.2056ZM47.2378 34.4202C46.7553 34.2005 46.1861 34.4135 45.9663 34.8961C45.7466 35.3786 45.9596 35.9479 46.4422 36.1676L47.2378 34.4202ZM43.96 40.2795V32.7608H42.04V40.2795H43.96ZM38.7622 34.4202C35.318 35.9886 33.0997 39.4162 33.0799 43.2006L35 43.2106C35.0159 40.175 36.7952 37.4256 39.5579 36.1676L38.7622 34.4202ZM33.0801 43.2167C33.1432 48.6387 37.5892 52.983 43.011 52.9208L42.989 51.0008C38.6273 51.051 35.0507 47.556 35 43.1944L33.0801 43.2167ZM42.989 52.9208C48.4108 52.983 52.8572 48.6387 52.9202 43.2167L51.0002 43.1944C50.9493 47.556 47.3728 51.051 43.011 51.0008L42.989 52.9208ZM52.92 43.2006C52.9002 39.4162 50.6821 35.9886 47.2378 34.4202L46.4422 36.1676C49.2048 37.4256 50.9842 40.175 51 43.2106L52.92 43.2006Z" fill="white"/>
</svg>
