<svg width="32" height="32" viewBox="0 0 32 32" fill="none" xmlns="http://www.w3.org/2000/svg">
<path opacity="0.4" d="M21.6534 4.86719H10.3467C7.05339 4.86719 4.38672 7.54719 4.38672 10.8272V23.3739C4.38672 26.6539 7.06672 29.3339 10.3467 29.3339H21.6401C24.9334 29.3339 27.6001 26.6539 27.6001 23.3739V10.8272C27.6134 7.53385 24.9334 4.86719 21.6534 4.86719Z" fill="#11CEC7"/>
<path d="M19.1331 2.66797H12.8664C11.4798 2.66797 10.3464 3.78797 10.3464 5.17464V6.42797C10.3464 7.81464 11.4664 8.93464 12.8531 8.93464H19.1331C20.5198 8.93464 21.6398 7.81464 21.6398 6.42797V5.17464C21.6531 3.78797 20.5198 2.66797 19.1331 2.66797Z" fill="#11CEC7"/>
<path d="M20.0001 17.2656H10.6667C10.1201 17.2656 9.66675 16.8123 9.66675 16.2656C9.66675 15.719 10.1201 15.2656 10.6667 15.2656H20.0001C20.5467 15.2656 21.0001 15.719 21.0001 16.2656C21.0001 16.8123 20.5467 17.2656 20.0001 17.2656Z" fill="#11CEC7"/>
<path d="M16.5067 22.6016H10.6667C10.1201 22.6016 9.66675 22.1482 9.66675 21.6016C9.66675 21.0549 10.1201 20.6016 10.6667 20.6016H16.5067C17.0534 20.6016 17.5067 21.0549 17.5067 21.6016C17.5067 22.1482 17.0534 22.6016 16.5067 22.6016Z" fill="#11CEC7"/>
</svg>
