<svg width="18" height="18" viewBox="0 0 18 18" fill="none" xmlns="http://www.w3.org/2000/svg">
<path opacity="0.4" d="M11.968 1.91675H6.03925C3.46092 1.91675 1.92383 3.45383 1.92383 6.03216V11.9609C1.92383 14.5392 3.46092 16.0763 6.03925 16.0763H11.968C14.5463 16.0763 16.0834 14.5392 16.0834 11.9609V6.03216C16.0834 3.45383 14.5463 1.91675 11.968 1.91675Z" fill="#11B8B2"/>
<path d="M6.9975 10.4804C7.13208 10.4804 7.26666 10.4308 7.37291 10.3245L10.4754 7.22203V8.94328C10.4754 9.23369 10.7162 9.47453 11.0067 9.47453C11.2971 9.47453 11.5379 9.23369 11.5379 8.94328V5.93995C11.5379 5.86911 11.5237 5.80536 11.4954 5.73453C11.4387 5.60703 11.3396 5.50078 11.205 5.44412C11.1412 5.41578 11.0704 5.40161 10.9996 5.40161H7.99625C7.70583 5.40161 7.465 5.64244 7.465 5.93286C7.465 6.22328 7.70583 6.46411 7.99625 6.46411H9.71749L6.615 9.56662C6.40958 9.77203 6.40958 10.112 6.615 10.3174C6.72833 10.4308 6.86291 10.4804 6.9975 10.4804Z" fill="#11B8B2"/>
<path d="M13.754 12.0316C13.662 11.7553 13.3645 11.6066 13.0811 11.6986C10.4461 12.577 7.54904 12.577 4.91404 11.6986C4.63779 11.6066 4.33321 11.7553 4.24112 12.0316C4.14904 12.3078 4.29779 12.6124 4.57404 12.7045C5.99779 13.1791 7.49238 13.4199 8.99405 13.4199C10.4957 13.4199 11.9903 13.1791 13.414 12.7045C13.6974 12.6053 13.8461 12.3078 13.754 12.0316Z" fill="#11B8B2"/>
</svg>
