<svg width="24" height="24" viewBox="0 0 24 24" fill="none" xmlns="http://www.w3.org/2000/svg">
<g clip-path="url(#clip0_975_10529)">
<path d="M12 0C5.36171 0 0 5.36171 0 12C0 18.6383 5.36171 24 12 24C18.6383 24 24 18.6383 24 12C24 5.36171 18.6383 0 12 0ZM12 22.0085C6.48513 22.0085 1.99149 17.5149 1.99149 12C1.99149 6.48508 6.48513 1.99149 12 1.99149C17.5149 1.99149 22.0086 6.48513 22.0086 12C22.0086 17.5149 17.5149 22.0085 12 22.0085Z" fill="#11CEC7"/>
<path d="M8.06801 7.45508C7.50633 7.45508 7.04675 7.91465 7.04675 8.47634V8.73164C7.04675 9.29333 7.50633 9.7529 8.06801 9.7529C8.6297 9.7529 9.08928 9.29333 9.08928 8.73164V8.47634C9.08932 7.91465 8.62975 7.45508 8.06801 7.45508Z" fill="#11CEC7"/>
<path d="M15.9319 7.45508C15.3702 7.45508 14.9106 7.91465 14.9106 8.47634V8.73164C14.9106 9.29333 15.3702 9.7529 15.9319 9.7529C16.4936 9.7529 16.9532 9.29333 16.9532 8.73164V8.47634C16.9532 7.91465 16.4936 7.45508 15.9319 7.45508Z" fill="#11CEC7"/>
<path d="M17.8723 13.4809C17.4639 13.0724 16.8511 13.0724 16.4425 13.4809C13.9915 15.932 10.0596 15.932 7.60851 13.4809C7.20001 13.0724 6.58725 13.0724 6.1787 13.4809C5.77016 13.8894 5.77021 14.5022 6.1787 14.9107C7.7617 16.4937 9.90638 17.3107 12 17.3107C14.0936 17.3107 16.2383 16.5448 17.8723 14.9107C18.2809 14.5022 18.2809 13.8894 17.8723 13.4809Z" fill="#11CEC7"/>
</g>
<defs>
<clipPath id="clip0_975_10529">
<rect width="24" height="24" fill="white"/>
</clipPath>
</defs>
</svg>
