<svg width="86" height="86" viewBox="0 0 86 86" fill="none" xmlns="http://www.w3.org/2000/svg">
<rect width="86" height="86" rx="43" fill="#0AAB62" fill-opacity="0.08"/>
<rect x="13" y="13" width="60" height="60" rx="30" fill="#0AAB62"/>
<path d="M29.4139 39.9699C29.789 39.5949 30.2976 39.3843 30.8279 39.3843C31.3583 39.3843 31.8669 39.5949 32.2419 39.9699L39.3139 47.0419L53.4539 32.8999C53.6396 32.7141 53.8601 32.5666 54.1028 32.466C54.3454 32.3654 54.6055 32.3136 54.8682 32.3135C55.1309 32.3134 55.3911 32.365 55.6338 32.4655C55.8765 32.5659 56.0971 32.7132 56.2829 32.8989C56.4688 33.0846 56.6162 33.305 56.7168 33.5477C56.8174 33.7904 56.8693 34.0505 56.8693 34.3132C56.8694 34.5759 56.8178 34.836 56.7173 35.0788C56.6169 35.3215 56.4696 35.5421 56.2839 35.7279L39.3139 52.6979L29.4139 42.7979C29.039 42.4228 28.8284 41.9142 28.8284 41.3839C28.8284 40.8536 29.039 40.3449 29.4139 39.9699Z" fill="white"/>
</svg>
