<svg width="86" height="86" viewBox="0 0 86 86" fill="none" xmlns="http://www.w3.org/2000/svg">
<rect width="86" height="86" rx="43" fill="#0AAB62" fill-opacity="0.08"/>
<rect x="13" y="13" width="60" height="60" rx="30" fill="#0AAB62"/>
<path d="M29.414 39.9709C29.7891 39.5959 30.2977 39.3853 30.828 39.3853C31.3583 39.3853 31.8669 39.5959 32.242 39.9709L39.314 47.0429L53.454 32.9009C53.6397 32.715 53.8602 32.5676 54.1028 32.467C54.3455 32.3664 54.6056 32.3145 54.8683 32.3145C55.131 32.3144 55.3911 32.366 55.6339 32.4665C55.8766 32.5669 56.0972 32.7142 56.283 32.8999C56.4688 33.0855 56.6163 33.306 56.7169 33.5487C56.8175 33.7913 56.8693 34.0515 56.8694 34.3142C56.8695 34.5768 56.8179 34.837 56.7174 35.0797C56.617 35.3225 56.4697 35.543 56.284 35.7289L39.314 52.6989L29.414 42.7989C29.0391 42.4238 28.8284 41.9152 28.8284 41.3849C28.8284 40.8545 29.0391 40.3459 29.414 39.9709Z" fill="white"/>
</svg>
