<svg width="24" height="24" viewBox="0 0 24 24" fill="none" xmlns="http://www.w3.org/2000/svg">
<path fill-rule="evenodd" clip-rule="evenodd" d="M19.8 10.18C19.49 7 17.61 2 11.8 2C5.99005 2 4.11005 7 3.80005 10.18C2.71256 10.5927 1.99524 11.6368 2.00002 12.8V14.2C2.00002 15.7464 3.25365 17 4.80005 17C6.34644 17 7.60005 15.7464 7.60005 14.2V12.8C7.59502 11.6619 6.90404 10.6393 5.85005 10.21C6.05005 8.37 7.03005 4 11.8 4C16.57 4 17.54 8.37 17.74 10.21C16.6882 10.6402 16.0007 11.6636 16 12.8V14.2C16.0044 15.275 16.6217 16.2533 17.59 16.72C17.17 17.51 16.1 18.58 13.47 18.9C12.9443 18.1017 11.9272 17.787 11.0425 18.1489C10.1578 18.5108 9.65283 19.4481 9.83733 20.386C10.0218 21.3239 10.8442 22 11.8 22C12.5554 21.9958 13.2439 21.5664 13.58 20.89C17.87 20.4 19.24 18.19 19.67 16.89C20.8334 16.5132 21.6157 15.4227 21.6 14.2V12.8C21.6049 11.6368 20.8875 10.5927 19.8 10.18ZM5.60005 14.2C5.60005 14.6418 5.24188 15 4.80005 15C4.35822 15 4.00005 14.6418 4.00005 14.2V12.8C4.00005 12.5142 4.15253 12.2501 4.40005 12.1072C4.64757 11.9643 4.95253 11.9643 5.20005 12.1072C5.44757 12.2501 5.60005 12.5142 5.60005 12.8V14.2ZM18 12.8C18 12.3582 18.3582 12 18.8 12C19.2419 12 19.6 12.3582 19.6 12.8V14.2C19.6 14.6418 19.2419 15 18.8 15C18.3582 15 18 14.6418 18 14.2V12.8Z" fill="#11CEC7"/>
</svg>
