<svg width="24" height="24" viewBox="0 0 24 24" fill="none" xmlns="http://www.w3.org/2000/svg">
<g clip-path="url(#clip0_137_1900)">
<path d="M8.99982 1.08008C9.36657 1.08017 9.6618 1.38198 9.66193 1.74316C9.66193 2.10572 9.36538 2.40225 8.99982 2.40234H7.07306C5.40247 2.40234 4.04103 3.7657 4.04083 5.43945V7.88281L4.54962 7.37305C4.80808 7.11422 5.22373 7.1143 5.48224 7.37305C5.74063 7.63186 5.7406 8.04781 5.48224 8.30664L3.8465 9.94531C3.71742 10.0746 3.54959 10.1396 3.37775 10.1396C3.20609 10.1396 3.03894 10.0744 2.90997 9.94531L1.27423 8.30664C1.01583 8.04781 1.01583 7.63188 1.27423 7.37305C1.53277 7.11443 1.94844 7.11422 2.20685 7.37305L2.71564 7.88281V5.43945C2.71583 3.03742 4.66958 1.08024 7.06818 1.08008H8.99982Z" fill="#11CEC7" stroke="#11CEC7" stroke-width="0.24"/>
<path d="M22.2581 1.11963C22.6241 1.11978 22.92 1.41652 22.9202 1.78271V11.2466C22.9202 11.6129 22.6242 11.9105 22.2581 11.9106H12.8088C12.4427 11.9105 12.1467 11.6129 12.1467 11.2466V1.78271C12.1469 1.41545 12.4436 1.125 12.803 1.11963H22.2581ZM13.467 10.5884H21.5959V2.4458H13.467V10.5884Z" fill="#11CEC7" stroke="#11CEC7" stroke-width="0.24"/>
<path d="M20.1578 14.0547C20.4075 13.8047 20.8408 13.8047 21.0905 14.0547L22.7262 15.6934C22.9846 15.9522 22.9846 16.3681 22.7262 16.627C22.5971 16.7562 22.4293 16.8213 22.2574 16.8213C22.0858 16.8212 21.9186 16.756 21.7897 16.627L21.2799 16.1162V18.5605C21.2798 20.9627 19.3261 22.9198 16.9274 22.9199H14.9957C14.6296 22.9197 14.3336 22.6231 14.3336 22.2568C14.3336 21.8905 14.6296 21.5939 14.9957 21.5938H16.9274C18.5979 21.5937 19.96 20.23 19.9645 18.5605V16.1152L19.4547 16.627C19.1962 16.8858 18.7806 16.8859 18.5221 16.627C18.2637 16.3681 18.2637 15.9522 18.5221 15.6934L20.1578 14.0547Z" fill="#11CEC7" stroke="#11CEC7" stroke-width="0.24"/>
<path d="M2.40076 21.5498H10.5287V13.4121H2.40076V21.5498ZM11.8529 22.2168C11.8529 22.5832 11.5571 22.8809 11.1908 22.8809H1.74255C1.38005 22.8809 1.08435 22.5826 1.08435 22.2168V12.7529C1.08447 12.3879 1.37508 12.0898 1.74255 12.0898H11.1908C11.553 12.0898 11.8475 12.3868 11.8529 12.7471V22.2168Z" fill="#11CEC7" stroke="#11CEC7" stroke-width="0.24"/>
</g>
<defs>
<clipPath id="clip0_137_1900">
<rect width="24" height="24" fill="white"/>
</clipPath>
</defs>
</svg>
