<svg width="20" height="20" viewBox="0 0 20 20" fill="none" xmlns="http://www.w3.org/2000/svg">
<path d="M7.5 0.900391C7.80561 0.900559 8.05176 1.15211 8.05176 1.45312C8.05151 1.755 7.8044 2.00179 7.5 2.00195H5.89453C4.50227 2.00195 3.36719 3.13827 3.36719 4.5332V6.56836L3.79102 6.14453C4.00644 5.92875 4.35293 5.92875 4.56836 6.14453C4.78367 6.36021 4.78365 6.70619 4.56836 6.92188L3.20508 8.28711C3.0976 8.39476 2.95853 8.44913 2.81543 8.44922C2.67221 8.44922 2.53237 8.39485 2.4248 8.28711L1.06152 6.92188C0.846392 6.70622 0.846379 6.36018 1.06152 6.14453C1.27695 5.92875 1.62344 5.92875 1.83887 6.14453L2.2627 6.56836V4.5332C2.2627 2.53129 3.89158 0.900391 5.89062 0.900391H7.5Z" fill="#01100F" stroke="#01100F" stroke-width="0.2"/>
<path d="M18.5485 0.933594C18.8536 0.933805 19.1003 1.18113 19.1003 1.48633V9.37305C19.1001 9.67804 18.8534 9.92459 18.5485 9.9248H10.6745C10.3694 9.9248 10.123 9.67817 10.1228 9.37305V1.48633C10.1228 1.18035 10.3693 0.938322 10.6687 0.933594H18.5485ZM11.2224 8.82324H17.9958V2.03809H11.2224V8.82324Z" fill="#01100F" stroke="#01100F" stroke-width="0.2"/>
<path d="M16.7987 11.7126C17.0068 11.5043 17.367 11.5043 17.575 11.7126L18.9383 13.0779C19.1536 13.2935 19.1536 13.6395 18.9383 13.8552C18.8308 13.963 18.6909 14.0173 18.5477 14.0173C18.4046 14.0172 18.2655 13.9629 18.1581 13.8552L17.7332 13.4304V15.4666C17.7332 17.4684 16.1052 19.1002 14.1063 19.1003H12.4969C12.1918 19.1003 11.9454 18.8528 11.9452 18.5476C11.9452 18.2423 12.1917 17.9949 12.4969 17.9949H14.1063C15.4985 17.9947 16.633 16.8579 16.6366 15.4666V13.4304L16.2127 13.8552C15.9973 14.071 15.6508 14.071 15.4354 13.8552C15.2201 13.6395 15.2201 13.2935 15.4354 13.0779L16.7987 11.7126Z" fill="#01100F" stroke="#01100F" stroke-width="0.2"/>
<path d="M1.99983 17.958H8.77425V11.1768H1.99983V17.958ZM9.87776 18.5146C9.87752 18.8197 9.63101 19.0663 9.326 19.0664H1.45198C1.15005 19.0664 0.90437 18.8192 0.904129 18.5146V10.6279C0.904129 10.3237 1.1457 10.0752 1.45198 10.0752H9.326C9.62769 10.0753 9.87317 10.322 9.87776 10.6221V18.5146Z" fill="#01100F" stroke="#01100F" stroke-width="0.2"/>
</svg>
