<svg width="22" height="22" viewBox="0 0 22 22" fill="none" xmlns="http://www.w3.org/2000/svg">
<path d="M18.9364 5.07625C17.5277 4.93625 16.1189 4.83125 14.7014 4.7525V4.74375L14.5089 3.60625C14.3777 2.80125 14.1852 1.59375 12.1377 1.59375H9.8452C7.80645 1.59375 7.61395 2.74875 7.47395 3.5975L7.2902 4.7175C6.47645 4.77 5.6627 4.8225 4.84895 4.90125L3.06395 5.07625C2.69645 5.11125 2.43395 5.435 2.46895 5.79375C2.50395 6.1525 2.81895 6.415 3.18645 6.38L4.97145 6.205C9.55645 5.75 14.1764 5.925 18.8139 6.38875C18.8402 6.38875 18.8577 6.38875 18.8839 6.38875C19.2164 6.38875 19.5052 6.135 19.5402 5.79375C19.5665 5.435 19.3039 5.11125 18.9364 5.07625Z" fill="#FB6464"/>
<path opacity="0.3991" d="M17.3263 7.6225C17.1163 7.40375 16.8275 7.28125 16.53 7.28125H5.47002C5.17252 7.28125 4.87503 7.40375 4.67378 7.6225C4.47253 7.84125 4.35877 8.13875 4.37627 8.445L4.91878 17.4225C5.01503 18.7525 5.13753 20.415 8.19128 20.415H13.8088C16.8625 20.415 16.985 18.7613 17.0813 17.4225L17.6238 8.45375C17.6413 8.13875 17.5275 7.84125 17.3263 7.6225Z" fill="#FB6464"/>
<path fill-rule="evenodd" clip-rule="evenodd" d="M8.88232 15.375C8.88232 15.0126 9.17614 14.7188 9.53857 14.7188H12.4523C12.8148 14.7188 13.1086 15.0126 13.1086 15.375C13.1086 15.7374 12.8148 16.0312 12.4523 16.0312H9.53857C9.17614 16.0312 8.88232 15.7374 8.88232 15.375Z" fill="#FB6464"/>
<path fill-rule="evenodd" clip-rule="evenodd" d="M8.15625 11.875C8.15625 11.5126 8.45006 11.2188 8.8125 11.2188H13.1875C13.5499 11.2188 13.8438 11.5126 13.8438 11.875C13.8438 12.2374 13.5499 12.5312 13.1875 12.5312H8.8125C8.45006 12.5312 8.15625 12.2374 8.15625 11.875Z" fill="#FB6464"/>
</svg>
