<svg width="24" height="24" viewBox="0 0 24 24" fill="none" xmlns="http://www.w3.org/2000/svg">
<path d="M15.9983 20.9994V18.9996C15.9983 17.9388 15.5769 16.9215 14.8268 16.1714C14.0767 15.4214 13.0594 15 11.9987 15H5.99933C4.93857 15 3.92127 15.4214 3.1712 16.1714C2.42114 16.9215 1.99976 17.9388 1.99976 18.9996V20.9994" stroke="#01100F" stroke-width="1.99978" stroke-linecap="round" stroke-linejoin="round"/>
<path d="M15.9983 3.12891C16.856 3.35128 17.6157 3.85217 18.158 4.55297C18.7003 5.25377 18.9945 6.1148 18.9945 7.00091C18.9945 7.88702 18.7003 8.74805 18.158 9.44884C17.6157 10.1496 16.856 10.6505 15.9983 10.8729" stroke="#01100F" stroke-width="1.99978" stroke-linecap="round" stroke-linejoin="round"/>
<path d="M21.998 20.9989V18.9989C21.9973 18.1126 21.7023 17.2517 21.1594 16.5512C20.6164 15.8508 19.8561 15.3505 18.998 15.1289" stroke="#01100F" stroke-width="1.99978" stroke-linecap="round" stroke-linejoin="round"/>
<path d="M8.99945 11C11.2086 11 12.9995 9.20914 12.9995 7C12.9995 4.79086 11.2086 3 8.99945 3C6.79031 3 4.99945 4.79086 4.99945 7C4.99945 9.20914 6.79031 11 8.99945 11Z" stroke="#01100F" stroke-width="1.99978" stroke-linecap="round" stroke-linejoin="round"/>
</svg>
