<svg width="20" height="20" viewBox="0 0 20 20" fill="none" xmlns="http://www.w3.org/2000/svg">
<path d="M16.6666 10.835C16.6666 15.0017 13.75 17.085 10.2833 18.2933C10.1018 18.3549 9.90459 18.3519 9.72498 18.285C6.24998 17.085 3.33331 15.0017 3.33331 10.835V5.00168C3.33331 4.78066 3.42111 4.5687 3.57739 4.41242C3.73367 4.25614 3.94563 4.16834 4.16665 4.16834C5.83331 4.16834 7.91665 3.16834 9.36665 1.90168C9.54319 1.75084 9.76777 1.66797 9.99998 1.66797C10.2322 1.66797 10.4568 1.75084 10.6333 1.90168C12.0916 3.17668 14.1666 4.16834 15.8333 4.16834C16.0543 4.16834 16.2663 4.25614 16.4226 4.41242C16.5788 4.5687 16.6666 4.78066 16.6666 5.00168V10.835Z" stroke="#11CEC7" stroke-width="1.66667" stroke-linecap="round" stroke-linejoin="round"/>
</svg>
