<svg width="16" height="16" viewBox="0 0 16 16" fill="none" xmlns="http://www.w3.org/2000/svg">
<path opacity="0.8" d="M8.60013 1.68002L8.58013 1.72669L6.6468 6.21335H4.7468C4.29346 6.21335 3.8668 6.30002 3.4668 6.47335L4.63346 3.68669L4.66013 3.62669L4.70013 3.52002C4.72013 3.47335 4.73346 3.43335 4.75346 3.40002C5.6268 1.38002 6.61346 0.920019 8.60013 1.68002Z" fill="white"/>
<path d="M12.1932 6.34672C11.8932 6.26005 11.5798 6.21339 11.2531 6.21339H6.64648L8.57982 1.72672L8.59982 1.68005C8.69315 1.71339 8.79315 1.76005 8.89315 1.79339L10.3665 2.41339C11.1865 2.75339 11.7598 3.10672 12.1132 3.53339C12.1732 3.61339 12.2265 3.68672 12.2798 3.77339C12.3398 3.86672 12.3865 3.96005 12.4132 4.06005C12.4398 4.12005 12.4598 4.17339 12.4731 4.23339C12.6465 4.80005 12.5398 5.48672 12.1932 6.34672Z" fill="white"/>
<path opacity="0.4" d="M14.5065 9.46671V10.7667C14.5065 10.9 14.4998 11.0334 14.4932 11.16C14.3665 13.4934 13.0665 14.6667 10.5998 14.6667H5.39983C5.23316 14.6667 5.07983 14.6534 4.9265 14.6334C2.8065 14.4934 1.67316 13.36 1.5265 11.24C1.5065 11.08 1.49316 10.9267 1.49316 10.7667V9.46671C1.49316 8.12671 2.3065 6.97338 3.4665 6.47338C3.8665 6.30005 4.29316 6.21338 4.7465 6.21338H11.2532C11.5798 6.21338 11.8932 6.26005 12.1932 6.34671C13.5265 6.75338 14.5065 7.99338 14.5065 9.46671Z" fill="white"/>
<path opacity="0.6" d="M4.63316 3.68665L3.4665 6.47331C2.3065 6.97331 1.49316 8.12665 1.49316 9.46665V7.51331C1.49316 5.61998 2.83983 4.03998 4.63316 3.68665Z" fill="white"/>
<path opacity="0.6" d="M14.5067 7.51339V9.46672C14.5067 7.99339 13.5267 6.75339 12.1934 6.34673C12.54 5.48673 12.6467 4.80006 12.4734 4.23339C12.46 4.17339 12.44 4.12006 12.4134 4.06006C13.66 4.70673 14.5067 6.02006 14.5067 7.51339Z" fill="white"/>
<path d="M9.66634 9.79329H8.49967V8.66663C8.49967 8.39329 8.27301 8.16663 7.99967 8.16663C7.72634 8.16663 7.49967 8.39329 7.49967 8.66663V9.79329H6.33301C6.05967 9.79329 5.83301 10.02 5.83301 10.2933C5.83301 10.5666 6.05967 10.7933 6.33301 10.7933H7.49967V12C7.49967 12.2733 7.72634 12.5 7.99967 12.5C8.27301 12.5 8.49967 12.2733 8.49967 12V10.7933H9.66634C9.93967 10.7933 10.1663 10.5666 10.1663 10.2933C10.1663 10.02 9.93967 9.79329 9.66634 9.79329Z" fill="white"/>
</svg>
