<svg width="32" height="32" viewBox="0 0 32 32" fill="none" xmlns="http://www.w3.org/2000/svg">
<path opacity="0.8" d="M17.1998 3.36004L17.1598 3.45337L13.2931 12.4267H9.49311C8.58644 12.4267 7.73311 12.6 6.93311 12.9467L9.26644 7.37337L9.31977 7.25337L9.39977 7.04004C9.43977 6.9467 9.46644 6.8667 9.50644 6.80004C11.2531 2.76004 13.2264 1.84004 17.1998 3.36004Z" fill="#11B8B2"/>
<path d="M24.3868 12.6933C23.7868 12.52 23.1601 12.4267 22.5068 12.4267H13.2935L17.1601 3.45332L17.2001 3.35999C17.3868 3.42665 17.5868 3.51999 17.7868 3.58665L20.7335 4.82665C22.3735 5.50665 23.5201 6.21332 24.2268 7.06665C24.3468 7.22665 24.4535 7.37332 24.5601 7.54665C24.6801 7.73332 24.7735 7.91999 24.8268 8.11999C24.8801 8.23999 24.9201 8.34665 24.9468 8.46665C25.2935 9.59999 25.0801 10.9733 24.3868 12.6933Z" fill="#11B8B2"/>
<path opacity="0.4" d="M29.0135 18.9333V21.5333C29.0135 21.8 29.0001 22.0666 28.9868 22.32C28.7335 26.9866 26.1335 29.3333 21.2001 29.3333H10.8001C10.4668 29.3333 10.1601 29.3066 9.85348 29.2666C5.61348 28.9866 3.34682 26.72 3.05348 22.48C3.01348 22.16 2.98682 21.8533 2.98682 21.5333V18.9333C2.98682 16.2533 4.61348 13.9466 6.93348 12.9466C7.73348 12.6 8.58682 12.4266 9.49348 12.4266H22.5068C23.1601 12.4266 23.7868 12.52 24.3868 12.6933C27.0535 13.5066 29.0135 15.9866 29.0135 18.9333Z" fill="#11B8B2"/>
<path opacity="0.6" d="M9.26682 7.37329L6.93348 12.9466C4.61348 13.9466 2.98682 16.2533 2.98682 18.9333V15.0266C2.98682 11.24 5.68015 8.07996 9.26682 7.37329Z" fill="#11B8B2"/>
<path opacity="0.6" d="M29.0134 15.0267V18.9333C29.0134 15.9867 27.0534 13.5067 24.3867 12.6933C25.0801 10.9733 25.2934 9.59999 24.9467 8.46666C24.92 8.34666 24.8801 8.24 24.8267 8.12C27.3201 9.41333 29.0134 12.04 29.0134 15.0267Z" fill="#11B8B2"/>
<path d="M19.3332 19.5867H16.9998V17.3334C16.9998 16.7867 16.5465 16.3334 15.9998 16.3334C15.4532 16.3334 14.9998 16.7867 14.9998 17.3334V19.5867H12.6665C12.1198 19.5867 11.6665 20.04 11.6665 20.5867C11.6665 21.1334 12.1198 21.5867 12.6665 21.5867H14.9998V24C14.9998 24.5467 15.4532 25 15.9998 25C16.5465 25 16.9998 24.5467 16.9998 24V21.5867H19.3332C19.8798 21.5867 20.3332 21.1334 20.3332 20.5867C20.3332 20.04 19.8798 19.5867 19.3332 19.5867Z" fill="#11B8B2"/>
</svg>
