<svg width="24" height="24" viewBox="0 0 24 24" fill="none" xmlns="http://www.w3.org/2000/svg">
<path d="M12.75 0C6.525 0 1.5 5.025 1.5 11.25C1.5 13.8 2.325 16.2 3.9 18.15L2.325 22.95C2.25 23.25 2.325 23.55 2.55 23.775C2.625 23.925 2.85 24 3 24C3.075 24 3.225 24 3.3 23.925L8.475 21.6C9.825 22.2 11.25 22.5 12.75 22.5C18.975 22.5 24 17.475 24 11.25C24 5.025 18.975 0 12.75 0Z" fill="#25D366"/>
<path d="M19.275 15.375C18.975 16.275 17.85 17.025 16.875 17.175C16.65 17.25 16.425 17.25 16.125 17.25C15.525 17.25 14.625 17.1 13.05 16.425C11.25 15.675 9.45 14.1 8.025 12.075V12C7.575 11.325 6.75 10.05 6.75 8.7C6.75 7.05 7.575 6.225 7.875 5.85C8.25 5.475 8.775 5.25 9.375 5.25C9.525 5.25 9.6 5.25 9.75 5.25C10.275 5.25 10.65 5.4 11.025 6.15L11.325 6.75C11.55 7.35 11.85 8.025 11.925 8.1C12.15 8.55 12.15 8.925 11.925 9.3C11.85 9.525 11.7 9.675 11.55 9.825C11.475 9.975 11.4 10.05 11.325 10.05C11.25 10.125 11.25 10.125 11.175 10.2C11.4 10.575 11.85 11.25 12.45 11.775C13.35 12.6 14.025 12.825 14.4 12.975C14.55 12.825 14.7 12.525 14.925 12.3L15 12.15C15.375 11.625 15.975 11.475 16.575 11.7C16.875 11.85 18.525 12.6 18.525 12.6L18.675 12.675C18.9 12.825 19.2 12.9 19.35 13.2C19.65 13.875 19.425 14.85 19.275 15.375Z" fill="white"/>
</svg>
